<?xml version="1.0" encoding="UTF-8" standalone="no"?>
<svg width="303px" height="17px" viewBox="0 0 303 17" version="1.1" xmlns="http://www.w3.org/2000/svg" xmlns:xlink="http://www.w3.org/1999/xlink" xmlns:sketch="http://www.bohemiancoding.com/sketch/ns">
    <!-- Generator: Sketch 3.2.2 (9983) - http://www.bohemiancoding.com/sketch -->
    <title>Social Icons</title>
    <desc>Created with Sketch.</desc>
    <defs></defs>
    <g id="Welcome" stroke="none" stroke-width="1" fill="none" fill-rule="evenodd" sketch:type="MSPage">
        <g id="Desktop" sketch:type="MSArtboardGroup" transform="translate(-25.000000, -650.000000)" fill="#FFFFFF">
            <g id="Social-Icons" sketch:type="MSLayerGroup" transform="translate(25.000000, 650.000000)">
                <path d="M14.8286129,13.4280186 C13.985604,14.3118841 12.9891061,14.9671637 11.8414805,15.3970656 C10.693855,15.8261655 9.46358153,16.0411164 8.15223438,16.0411164 C6.98099514,16.0411164 5.86879014,15.8381963 4.81404513,15.4331581 C3.80652751,15.0513796 2.95171178,14.5019713 2.24881081,13.7857355 C1.52229616,13.04624 0.97209708,12.198467 0.597426464,11.2440206 C0.198355032,10.2173891 0,9.14343637 0,8.02055822 C0,6.87522251 0.210949002,5.8133006 0.632847006,4.83399044 C1.05395789,3.85548234 1.6395775,3.00770933 2.38970586,2.29147348 C3.06820601,1.62416304 3.93561571,1.06272396 4.98957359,0.609562425 C5.99709121,0.203722179 7.0510491,0 8.15223438,0 C9.1361383,0 10.0854088,0.144370048 10.9984717,0.429901921 C11.9123216,0.717037905 12.7206971,1.14693983 13.4235981,1.71960768 C14.1257119,2.29147348 14.6885049,3.00770933 15.1096158,3.86751318 C15.5315138,4.72731702 15.7424628,5.74111558 15.7424628,6.91131502 C15.7424628,7.81844016 15.6251815,8.5819973 15.3914059,9.20278851 C15.1332295,9.89576474 14.816806,10.4435689 14.4421354,10.8494091 C14.0210245,11.3041748 13.5755128,11.63783 13.1071746,11.8519789 C12.5679952,12.0909915 12.0406227,12.2104978 11.5258442,12.2104978 C10.9638382,12.2104978 10.5065197,12.0669298 10.1554628,11.7805959 C9.80440585,11.494262 9.62809027,11.1485759 9.62809027,10.7427357 L9.52261576,10.7427357 C9.31245389,11.1004526 8.98343641,11.4349099 8.53871184,11.7453055 C8.09320014,12.0557011 7.55480791,12.2104978 6.92196091,12.2104978 C5.96167067,12.2104978 5.21232944,11.8880714 4.67393721,11.2440206 C4.13397074,10.575106 3.86556175,9.72813507 3.86556175,8.70150362 C3.86556175,8.08071241 3.97024913,7.48398288 4.18198525,6.91131502 C4.39293425,6.31458549 4.67393721,5.79004098 5.02499413,5.33527533 C5.35243736,4.90617547 5.79794906,4.53642773 6.36074211,4.22603213 C6.89913433,3.93889614 7.4729471,3.79532815 8.08218042,3.79532815 C8.55051868,3.79532815 8.99603038,3.91563652 9.41714126,4.15464916 C9.79181188,4.39285974 10.0373943,4.67919367 10.1554628,5.01284889 L10.1900962,5.01284889 L10.3656246,4.15464916 L12.2641657,4.15464916 L11.4203697,8.20021873 C11.3731423,8.48655266 11.3377217,8.71353445 11.3148952,8.88036207 C11.2676678,9.21481934 11.2448412,9.44180114 11.2448412,9.5605054 C11.2448412,9.82357971 11.2912815,10.0385307 11.3849491,10.2053583 C11.4786168,10.3721859 11.6541452,10.4555997 11.9123216,10.4555997 C12.4743275,10.4555997 12.9316461,10.1460062 13.282703,9.52441289 C13.6573736,8.88036207 13.8447089,8.06948363 13.8447089,7.09017347 C13.8447089,6.23117168 13.704601,5.46681249 13.4235981,4.79789793 C13.1654217,4.20197045 12.7671374,3.64053138 12.2287451,3.11598687 C11.7367932,2.6379616 11.1267727,2.29147348 10.4010452,2.07732458 C9.69814422,1.86237362 8.93699615,1.75489814 8.11760096,1.75489814 C7.1801373,1.75489814 6.36074211,1.91049697 5.65784114,2.22089257 C4.93132648,2.53128818 4.29847948,2.98444971 3.76008725,3.58117925 C3.19808132,4.20197045 2.78799017,4.87008295 2.52981378,5.5863188 C2.22519712,6.39799929 2.07328235,7.22171062 2.07328235,8.05665074 C2.07328235,9.05922051 2.22519712,9.91902435 2.52981378,10.6352602 C2.857257,11.3996194 3.29096185,12.0436702 3.83014121,12.5682147 C4.41576082,13.118425 5.08324125,13.534692 5.8333696,13.8210259 C6.60632453,14.1081619 7.44933341,14.2517299 8.36318338,14.2517299 C9.46358153,14.2517299 10.4592923,14.0608406 11.3495286,13.6790621 C12.0996569,13.3686664 12.860805,12.8545487 13.6337599,12.1391149 L14.8286129,13.4280186 L14.8286129,13.4280186 Z M8.11760096,5.5863188 C7.74214322,5.5863188 7.44933341,5.68176345 7.23838441,5.87265273 C6.93376775,6.13572704 6.71179903,6.39799929 6.57090398,6.6610736 C6.43000894,6.89928418 6.30092075,7.23374146 6.18442652,7.66364338 C6.09075887,7.97323693 6.0443186,8.33175588 6.0443186,8.73759613 C6.0443186,8.97580671 6.05533833,9.16749805 6.07895202,9.30946193 C6.10177859,9.50115327 6.17261967,9.68001172 6.28990102,9.84683933 C6.38356868,9.99040732 6.5236766,10.1211424 6.71179903,10.2414508 C6.89913433,10.3609571 7.12110306,10.4203092 7.37927945,10.4203092 C7.73033637,10.4203092 8.05856672,10.3248646 8.36318338,10.1339753 C8.59695895,9.99040732 8.82050192,9.74016591 9.0306638,9.38164695 C9.2416128,9.04799173 9.36991387,8.73759613 9.41714126,8.45046014 C9.48798235,8.09274325 9.52261576,7.76951475 9.52261576,7.48398288 C9.52261576,7.17358728 9.51080892,6.94660548 9.48798235,6.80303749 C9.46358153,6.63701193 9.38172072,6.43409181 9.2416128,6.19507917 C9.12433145,6.02825156 8.98343641,5.88548562 8.82050192,5.76517725 C8.63237949,5.64567093 8.3978168,5.5863188 8.11760096,5.5863188 L8.11760096,5.5863188 Z" id="Fill-1" sketch:type="MSShapeGroup"></path>
                <path d="M104.260757,5.34730617 L106.885026,5.34730617 L106.556795,8.02055822 L104.260757,8.02055822 L104.260757,16.0411164 L100.858024,16.0411164 L100.858024,8.02055822 L99.0137942,8.02055822 L99.0137942,5.34730617 L100.858024,5.34730617 L100.858024,3.55150318 C100.858024,2.38130374 101.145324,1.49743822 101.719136,0.898302521 C102.292949,0.299968878 103.249304,0 104.588987,0 L106.885026,0 L106.885026,2.67405411 L105.490243,2.67405411 C104.971529,2.67405411 104.636215,2.75746792 104.486661,2.92509758 C104.335534,3.0919252 104.260757,3.37023857 104.260757,3.7600377 L104.260757,5.34730617" id="Fill-2" sketch:type="MSShapeGroup"></path>
                <path d="M204.626829,0 C204.981821,0 205.28329,0.118704262 205.528872,0.355310729 C205.775241,0.591917197 205.898033,0.891886074 205.898033,1.25361325 L205.898033,14.6623825 C205.898033,15.0249117 205.775241,15.345734 205.528872,15.6240474 C205.28329,15.9023608 204.981821,16.0411164 204.626829,16.0411164 L191.508635,16.0411164 C191.152855,16.0411164 190.838793,15.9023608 190.565661,15.6240474 C190.291742,15.345734 190.15557,15.0249117 190.15557,14.6623825 L190.15557,1.25361325 C190.15557,0.891886074 190.285445,0.591917197 190.545196,0.355310729 C190.804159,0.118704262 191.125306,0 191.508635,0 L204.626829,0 L204.626829,0 Z M204.504038,14.7048914 C204.558349,14.7048914 204.586686,14.6776215 204.586686,14.6214776 L204.586686,1.42124292 C204.586686,1.36509901 204.558349,1.33702706 204.504038,1.33702706 L191.549565,1.33702706 C191.494466,1.33702706 191.467704,1.36509901 191.467704,1.42124292 L191.467704,14.5797707 C191.467704,14.6623825 191.508635,14.7048914 191.590495,14.7048914 L204.504038,14.7048914 L204.504038,14.7048914 Z M193.968394,5.1379696 C193.612615,5.1379696 193.325315,5.02086945 193.107282,4.78346092 C192.888461,4.54765651 192.779838,4.26132258 192.779838,3.92766736 C192.779838,3.56513813 192.895546,3.26597131 193.127747,3.02856279 C193.359948,2.79275837 193.653545,2.67405411 194.009325,2.67405411 C194.364317,2.67405411 194.65083,2.79275837 194.870437,3.02856279 C195.088471,3.26597131 195.197881,3.56513813 195.197881,3.92766736 C195.197881,4.26132258 195.081386,4.54765651 194.849185,4.78346092 C194.616984,5.02086945 194.3226,5.1379696 193.968394,5.1379696 L193.968394,5.1379696 Z M192.779838,6.22475524 L195.034159,6.22475524 L195.034159,13.3678644 L192.779838,13.3678644 L192.779838,6.22475524 Z M200.691213,6.05792763 C201.456297,6.05792763 202.078124,6.32260605 202.556695,6.85116083 C203.034479,7.38051768 203.274551,8.16091799 203.274551,9.19075767 L203.274551,13.3678644 L201.019443,13.3678644 L201.019443,9.44180114 C201.019443,8.41115941 200.636114,7.89543752 199.871818,7.89543752 C199.324767,7.89543752 198.942225,8.17375089 198.723405,8.73117968 C198.668307,8.84266544 198.641544,9.03836706 198.641544,9.31587838 L198.641544,13.3678644 L196.387224,13.3678644 L196.387224,6.22475524 L198.641544,6.22475524 L198.641544,7.22732502 C199.187808,6.44772676 199.871818,6.05792763 200.691213,6.05792763 L200.691213,6.05792763 Z" id="Fill-3" sketch:type="MSShapeGroup"></path>
                <path d="M302.77951,1.92252781 C302.287558,2.70212607 301.631885,3.39831052 300.811702,4.01027911 L300.811702,4.511564 C300.811702,7.43585953 299.779784,10.0882581 297.716734,12.4695619 C295.652897,14.8508656 292.912922,16.0411164 289.496807,16.0411164 C287.310179,16.0411164 285.287273,15.4291479 283.429662,14.2036066 C283.866515,14.2597505 284.180578,14.2870204 284.372636,14.2870204 C286.202697,14.2870204 287.843062,13.7023217 289.292155,12.5321222 C288.444424,12.5056544 287.678553,12.2337575 286.996117,11.7172335 C286.312894,11.2031157 285.848492,10.5422217 285.602122,9.73374946 C285.930352,9.78989337 286.175935,9.81716327 286.340443,9.81716327 C286.612788,9.81716327 286.968568,9.76182141 287.406208,9.6495336 C286.504165,9.45543609 285.745378,8.9886396 285.130635,8.25074824 C284.515892,7.51285689 284.208127,6.65706333 284.208127,5.68176345 L284.208127,5.63925449 C284.809489,5.97371176 285.410851,6.14053938 286.012213,6.14053938 C284.837038,5.36254523 284.249844,4.23405269 284.249844,2.75746792 C284.249844,2.06128346 284.426947,1.39317096 284.782727,0.752328361 C286.886707,3.39831052 289.606217,4.80431438 292.940471,4.97114199 C292.885372,4.77704448 292.85861,4.4698571 292.85861,4.05278807 C292.85861,2.91066058 293.241152,1.95059976 294.007023,1.17019944 C294.771319,0.390601185 295.714293,0 296.835156,0 C297.955233,0 298.911587,0.432308088 299.705007,1.29532015 C300.52519,1.15576244 301.371347,0.822107218 302.246628,0.292750375 C301.973496,1.26805026 301.386302,2.02037862 300.484259,2.5489334 C301.330417,2.46471754 302.096287,2.25618303 302.77951,1.92252781" id="Fill-4" sketch:type="MSShapeGroup"></path>
            </g>
        </g>
    </g>
</svg>