<?xml version="1.0" encoding="UTF-8" standalone="no"?>
<svg width="273px" height="195px" viewBox="0 0 273 195" version="1.1" xmlns="http://www.w3.org/2000/svg" xmlns:xlink="http://www.w3.org/1999/xlink" xmlns:sketch="http://www.bohemiancoding.com/sketch/ns">
    <!-- Generator: Sketch 3.2.2 (9983) - http://www.bohemiancoding.com/sketch -->
    <title>Imported Layers 2</title>
    <desc>Created with Sketch.</desc>
    <defs></defs>
    <g id="Welcome" stroke="none" stroke-width="1" fill="none" fill-rule="evenodd" sketch:type="MSPage">
        <g id="Desktop" sketch:type="MSArtboardGroup" transform="translate(-376.000000, -455.000000)" fill="#FFFFFF">
            <g id="Imported-Layers-2" sketch:type="MSLayerGroup" transform="translate(375.000000, 455.000000)">
                <path d="M16.3283915,32.4518785 C15.9126938,32.4518785 15.5012597,32.4001657 15.0898256,32.2331768 C15.2358527,31.274337 15.3829457,30.3887569 15.9659884,29.8716298 L17.0627907,27.6555249 C17.7929264,26.328232 18.2320736,24.5549171 19.2542636,23.4484807 C19.6912791,21.2323757 21.2261628,20.1270166 21.6642442,17.9098343 C22.0287791,17.4681215 22.1023256,16.8044751 22.5414729,16.5082044 C22.5414729,15.5482873 22.7599806,14.8835635 23.3440891,14.5151105 C23.9281977,14.5883702 24.0017442,15.1798343 24.0742248,15.695884 C24.367345,15.9921547 24.4398256,16.5825414 24.7318798,16.8777348 C24.9514535,17.5424586 25.3895349,18.1328453 25.6815891,18.723232 L26.4852713,20.5687293 C26.9968992,21.8238398 27.8741279,22.8580939 28.2386628,24.1864641 C28.8963178,25.0709669 29.4804264,26.105221 29.8449612,27.2870718 C30.5026163,28.5421823 31.0867248,29.8716298 31.890407,30.905884 C31.8179264,31.2 31.9639535,31.2 32.0364341,31.4219337 L32.0364341,31.9379834 C31.4523256,32.4561878 30.2841085,32.3818508 29.2608527,32.4561878 C28.7492248,32.3818508 28.4571705,32.2331768 27.9466085,32.2331768 L25.6815891,32.5294475 C25.1497093,32.4055525 24.3897287,32.3042818 23.6563953,32.3042818 C23.0797481,32.3042818 22.520155,32.366768 22.1023256,32.5294475 C21.8060078,32.5790055 21.5139535,32.5994751 21.2261628,32.5994751 C20.2359496,32.5994751 19.299031,32.3646133 18.4505814,32.3075138 C17.7204457,32.3075138 17.0190891,32.4518785 16.3283915,32.4518785 M23.2716085,1.96400552 C22.6875,2.03834254 22.6139535,2.62872928 22.3218992,2.99718232 C22.3218992,3.58864641 21.8102713,3.81058011 21.7377907,4.3998895 C20.860562,5.35872928 20.35,6.68925414 19.9108527,8.09303867 C19.4727713,8.6090884 19.2542636,9.34707182 18.9611434,10.0117956 C18.5966085,10.6021823 18.4505814,11.3390884 17.9389535,11.8572928 C17.9389535,12.7428729 17.2812984,13.628453 17.0627907,14.1455801 L16.9167636,14.7370442 C16.8432171,14.8835635 16.6247093,14.9589779 16.5511628,15.1044199 C16.4776163,15.2530939 16.5511628,15.5482873 16.4776163,15.695884 C16.185562,16.2862707 15.7474806,16.7290608 15.4554264,17.3205249 C15.0898256,17.9098343 14.9448643,18.5756354 14.5057171,19.0927624 C14.5057171,19.6098895 14.1411822,19.9050829 14.1411822,20.4211326 C13.4835271,21.3067127 13.1914729,22.4874862 12.5338178,23.3741436 C12.3142442,24.4083978 11.8761628,25.2207182 11.3645349,26.0319613 C11.4380814,26.7710221 10.8539729,27.0662155 10.7079457,27.4346685 C10.4148256,28.0261326 10.342345,28.4689227 10.1238372,28.9849724 C9.97674419,29.2823204 9.68575581,29.5764365 9.53972868,29.8716298 C9.46511628,30.0181492 9.53972868,30.3144199 9.46511628,30.4630939 C9.39263566,30.6096133 9.17412791,30.6839503 9.1005814,30.831547 L8.6625,31.8658011 C8.29689922,32.5294475 8.07732558,33.1941713 7.7127907,33.858895 C7.49321705,34.2284254 7.2747093,34.6712155 7.12868217,35.1140055 C7.05513566,35.4824586 6.83662791,35.7043923 6.68953488,36.071768 C6.47102713,36.4423757 6.47102713,36.8119061 6.32393411,37.1803591 C6.03294574,37.8440055 5.44777132,38.3611326 5.3752907,39.173453 L4.13352713,41.758011 C3.69544574,42.6435912 3.18381783,43.5291713 2.96531008,44.5634254 C2.45368217,45.0805525 2.16056202,45.8928729 1.72354651,46.5565193 C1.43149225,47.2955801 0.847383721,47.8848895 1.06589147,49.2154144 C1.50397287,50.0266575 2.52616279,50.3961878 3.69544574,50.3961878 C4.35949612,50.3293923 5.08430233,50.0169613 5.75901163,50.0169613 C5.82616279,50.0169613 5.89331395,50.0201934 5.95939922,50.0266575 C6.54350775,49.4373481 7.20116279,48.994558 7.56676357,48.2554972 C7.85881783,47.8848895 7.85881783,47.2955801 8.07732558,46.8517127 C8.73498062,45.9661326 9.02810078,44.7842818 9.75823643,43.9730387 C9.83071705,43.2350552 10.1963178,42.9387845 10.2698643,42.2008011 L11.1460271,41.0189503 C11.4380814,39.7638398 11.657655,38.5098066 12.7523256,38.1391989 C13.0688953,38.0907182 13.3854651,38.074558 13.6999031,38.074558 C14.3277132,38.074558 14.9437984,38.1391989 15.5289729,38.1391989 C17.9016473,38.1391989 20.4363372,37.9775967 23.1309109,37.9775967 C23.5871124,37.9775967 24.0475775,37.9829834 24.5133721,37.9937569 C24.9514535,37.9937569 25.3159884,37.8440055 25.6815891,37.7718232 C26.095155,37.8946409 26.5257752,37.9355801 26.9723837,37.9355801 C27.8645349,37.9355801 28.8227713,37.7718232 29.8449612,37.7718232 C31.0952519,37.7718232 32.3444767,37.9345028 33.6395349,37.9345028 C33.8591085,37.9345028 34.0786822,37.929116 34.3014535,37.9183425 C35.0315891,38.2878729 35.2511628,39.2477901 35.5421512,39.9125138 L35.9077519,40.2066298 C36.1273256,40.5029006 36.2733527,40.7980939 36.4918605,41.0189503 C36.4918605,41.6104144 36.7114341,41.8323481 36.7114341,42.3483978 C37.0770349,42.7168508 37.3690891,43.0863812 37.6611434,43.6035083 C37.8071705,43.899779 37.6611434,44.4169061 37.8807171,44.6377624 C38.4648256,45.4500829 38.8293605,46.4089227 39.2685078,47.3688398 C39.9250969,48.0346409 40.1446705,49.14 40.8748062,49.8058011 C41.1444767,49.8758287 41.3960271,49.9081492 41.6315891,49.9081492 C42.8626938,49.9081492 43.6695736,49.0570442 44.5276163,48.6239503 C44.6736434,48.0346409 45.2577519,47.8848895 45.1117248,47.0736464 C45.0381783,46.4832597 44.8196705,45.8928729 44.8196705,45.2281492 C44.4540698,44.7842818 44.0895349,44.2671547 43.8688953,43.751105 C43.577907,42.4959945 42.8467054,41.683674 42.4821705,40.5029006 C41.7520349,39.6173204 41.3864341,38.3611326 40.8748062,37.3279558 C40.6562984,37.0327624 40.8023256,36.4423757 40.6562984,36.1471823 C40.3631783,35.7043923 39.9975775,35.3348619 39.7065891,34.7444751 C39.0489341,33.4893646 38.6833333,31.8658011 37.7346899,30.6839503 C37.0034884,29.4277624 36.565407,27.8774586 35.8352713,26.6234254 C35.4696705,25.3683149 34.885562,24.3340608 34.3014535,23.3741436 C34.1543605,22.9313536 33.8623062,22.4142265 33.717345,22.1944475 C33.6437984,21.9714365 33.717345,21.8238398 33.6437984,21.6029834 C33.3517442,21.0115193 33.0596899,20.5687293 32.6940891,20.1270166 C32.7665698,19.2392818 32.1824612,18.723232 31.890407,18.1328453 L31.7443798,17.5424586 C31.5248062,16.9509945 31.0867248,16.8044751 30.9406977,16.2862707 C30.721124,15.3252762 30.2841085,14.5883702 30.0645349,13.7027901 C29.4068798,12.8161326 28.8963178,11.8572928 28.6767442,10.526768 C28.1651163,9.86312155 27.7270349,9.12513812 27.4349806,8.31389503 C27.0704457,7.50049724 26.6312984,6.83685083 26.2656977,6.02453039 C25.9011628,5.21328729 25.3895349,4.54964088 25.2435078,3.58864641 C24.7318798,2.84958564 24.367345,2.03834254 23.2716085,1.96400552" id="Fill-1" sketch:type="MSShapeGroup"></path>
                <path d="M77.6150194,28.0261326 C78.6531977,27.9851934 79.7116279,27.9227072 80.7572674,27.9227072 C81.6249031,27.9227072 82.4840116,27.9658011 83.3132752,28.0993923 C84.9195736,28.3935083 86.2348837,29.0593094 87.3306202,29.6486188 C87.8411822,29.7972928 88.0607558,30.2400829 88.3528101,30.6096133 C88.6448643,30.905884 89.0829457,31.1278177 89.3025194,31.4951934 C89.8866279,32.0866575 90.2522287,32.9733149 90.7627907,33.7112983 C90.7627907,34.153011 90.9098837,34.4503591 90.9812984,34.7444751 C91.054845,35.9252486 90.8363372,36.7375691 90.9098837,37.7718232 C90.6892442,38.4354696 90.3247093,39.0269337 90.1786822,39.7638398 L87.9147287,42.5692541 C86.6729651,43.0863812 85.7232558,43.9730387 84.4079457,44.4169061 C84.091376,44.5149448 83.7588178,44.5472652 83.4177326,44.5472652 C82.7366279,44.5472652 82.0224806,44.4169061 81.3403101,44.4169061 C80.6101744,44.4169061 79.9525194,44.7120994 79.2223837,44.7842818 C78.8567829,44.7842818 78.4922481,44.6377624 78.1266473,44.6377624 C77.5841085,44.6377624 76.9232558,44.7336464 76.2783915,44.7336464 C75.7944767,44.7336464 75.320155,44.679779 74.9119186,44.4890884 C74.6198643,43.751105 74.839438,42.7168508 74.7669574,41.758011 C74.6934109,40.7980939 74.7669574,39.7638398 74.9119186,38.9525967 C74.9119186,38.4354696 74.6934109,38.2146133 74.6198643,37.7718232 C74.839438,37.2546961 74.7669574,36.663232 74.7669574,36.071768 L74.7669574,34.3006077 C74.839438,32.3075138 74.6198643,30.2400829 74.7669574,28.2480663 C75.1421512,28.005663 75.5642442,27.9420994 76.0129845,27.9420994 C76.5246124,27.9420994 77.0703488,28.0261326 77.6150194,28.0261326 M77.4721899,22.8764088 C76.6844961,22.8764088 75.8968023,22.8408564 75.1314922,22.7837569 C74.328876,21.8981768 75.2775194,19.9050829 74.6198643,18.7975691 C74.7669574,15.1044199 74.6198643,11.2658287 74.7669574,7.65024862 C75.1325581,7.20530387 75.6814922,7.09433702 76.3125,7.09433702 C76.9424419,7.09433702 77.6533915,7.20530387 78.345155,7.20530387 C79.2948643,7.57483425 80.5366279,7.57483425 81.5598837,7.87110497 C83.0937016,8.6090884 84.2619186,9.71552486 85.2116279,11.0449724 L86.3073643,13.8493094 C86.3073643,14.3664365 86.1613372,15.1044199 86.379845,15.4750276 C86.3073643,15.770221 86.3073643,16.6568785 86.1613372,17.0996685 C86.0888566,17.2472652 85.8682171,17.4681215 85.7968023,17.6889779 L85.357655,18.9440884 C85.2116279,19.3146961 85.0656008,19.4601381 84.9195736,19.7574862 C84.4079457,20.4943923 83.4582364,21.084779 82.8016473,21.7495028 C82.1439922,21.8238398 81.704845,22.2666298 81.1207364,22.5618232 C79.9589147,22.7880663 78.7150194,22.8764088 77.4721899,22.8764088 M71.1141473,1.4479558 C70.3104651,1.81533149 69.1422481,1.74207182 68.6306202,2.33245856 C68.4121124,2.92392265 68.5570736,3.73624309 68.5570736,4.47422652 C68.6306202,6.68925414 68.5570736,8.90428177 68.7777132,10.8230387 C68.4121124,12.0048895 68.7777132,13.3332597 68.7777132,14.6616298 C68.7777132,19.6820718 68.7777132,25.0709669 68.9226744,29.7972928 C68.9226744,31.5695304 69.1422481,33.6369613 68.7777132,35.2616022 C68.9962209,40.2820442 69.1422481,44.4890884 68.7777132,49.288674 C68.7031008,49.8790608 69.5067829,50.2485912 70.0184109,50.3961878 C70.1633721,50.4252762 70.3125969,50.4371271 70.4618217,50.4371271 C71.0629845,50.4371271 71.6833333,50.2485912 72.2098837,50.2485912 C73.0135659,50.2485912 73.8897287,50.4694475 74.7669574,50.4694475 C75.6431202,50.4694475 76.5928295,50.2485912 77.3954457,50.2485912 C77.9806202,50.2485912 78.5647287,50.3229282 79.1488372,50.3961878 C79.4408915,50.3961878 79.6604651,50.2485912 79.9525194,50.2485912 C80.2445736,50.2485912 80.5366279,50.3961878 80.9022287,50.3961878 C82.4072674,50.3337017 83.9666667,49.9975691 85.5793605,49.9975691 C85.8447674,49.9975691 86.1123062,50.0061878 86.379845,50.0266575 C87.0375,49.7314641 87.5491279,49.4373481 88.3528101,49.288674 C88.9369186,48.994558 89.5945736,48.6982873 90.3247093,48.4763536 C91.4204457,47.4431768 92.6622093,46.5565193 93.9039729,45.5966022 C94.1235465,45.0051381 94.5616279,44.4169061 94.9272287,43.751105 C95.2917636,43.0863812 95.729845,42.4227348 95.9494186,41.8323481 C96.0954457,41.6104144 96.1679264,41.166547 96.3139535,40.7980939 C96.6060078,39.7638398 97.1176357,38.3611326 97.1176357,37.1803591 C97.1176357,37.0327624 97.045155,36.9595028 96.9726744,36.7375691 C96.8255814,35.6300552 96.8991279,34.5214641 96.7520349,33.3406906 C96.6795543,32.5294475 96.5335271,31.4951934 96.1679264,30.831547 C95.3642442,29.5031768 94.3420543,28.3935083 93.5383721,27.0662155 C93.1738372,26.8442818 92.2966085,26.328232 92.1505814,26.1806354 C91.8585271,25.5891713 91.054845,25.5891713 90.7627907,25.0709669 C90.7627907,25.0709669 89.8866279,24.7046685 89.3760659,24.6292541 C89.3025194,24.6292541 88.2792636,24.4083978 88.2067829,23.8169337 C88.5713178,23.0056906 89.4485465,22.7104972 90.1062016,22.1944475 L91.3468992,20.3478729 C91.3468992,19.6098895 91.7860465,19.3146961 91.9310078,18.723232 C92.2966085,16.5082044 92.2966085,13.9979834 92.0045543,11.7096961 C91.4939922,10.6021823 90.9098837,9.56900552 90.5432171,8.23955801 C89.6681202,7.05878453 88.6448643,5.95019337 87.695155,4.84267956 C86.2348837,4.10469613 84.9195736,3.21803867 83.5317829,2.40679558 C79.6604651,1.52121547 75.2050388,1.89074586 71.1141473,1.4479558" id="Fill-2" sketch:type="MSShapeGroup"></path>
                <path d="M135.902229,43.1617956 C134.367345,42.5692541 133.199128,41.758011 131.520349,41.315221 C130.935174,40.8724309 130.424612,40.3553039 129.693411,40.1344475 C129.328876,39.4697238 128.744767,39.099116 128.23314,38.581989 C127.429457,37.9172652 126.479748,37.0327624 125.676066,36.2937017 C125.531105,35.7043923 125.165504,35.4824586 124.872384,35.1129282 C124.653876,34.0064917 123.996221,33.2674309 123.704167,32.2331768 C123.338566,31.274337 122.972965,30.2400829 122.534884,29.2823204 L122.316376,26.8442818 C122.316376,26.1806354 122.170349,25.3683149 122.243895,24.7768508 C122.243895,24.1121271 122.462403,23.4484807 122.534884,22.7837569 C122.681977,22.1201105 122.82907,21.4543094 122.900484,20.790663 C123.338566,20.2735359 123.412112,19.3879558 123.704167,18.723232 C124.215795,18.0595856 124.142248,17.3205249 124.506783,16.5825414 C124.94593,15.770221 125.822093,15.2530939 126.041667,14.2931768 C126.917829,13.554116 127.649031,12.6696133 128.30562,11.7096961 C128.671221,11.7096961 128.890795,11.3390884 129.109302,11.118232 C129.401357,10.8973757 130.132558,10.6765193 130.497093,10.3059116 C131.301841,10.0117956 131.95843,9.19947514 132.834593,8.82994475 C133.564729,8.46041436 134.660465,8.31389503 135.683721,8.01762431 L137.071512,7.50049724 C137.509593,7.42723757 138.020155,7.20530387 138.460368,7.20530387 C139.189438,7.05878453 140.065601,7.1320442 140.870349,7.05878453 C141.489632,7.00599448 142.07374,6.95320442 142.672771,6.95320442 C142.920058,6.95320442 143.170543,6.9618232 143.426357,6.98337017 C144.156492,6.98337017 144.887694,7.27964088 145.689244,7.27964088 C146.347965,7.50049724 147.00562,7.72243094 147.809302,7.87110497 C149.051066,8.31389503 149.999709,9.05187845 151.315019,9.42140884 C151.754167,9.93853591 152.484302,10.1593923 152.922384,10.6765193 C154.821802,11.7096961 155.916473,13.4065193 157.450291,14.7370442 C157.815891,15.5482873 158.253973,16.2862707 158.839147,16.8777348 C159.058721,17.6889779 159.568217,18.354779 160.007364,19.0927624 L160.078779,19.3146961 C160.153391,20.790663 160.7375,21.7495028 160.883527,23.1522099 L160.883527,23.3741436 C161.029554,23.3741436 161.029554,23.3741436 161.029554,23.4484807 C160.883527,23.9656077 161.029554,24.4827348 161.029554,24.9987845 C160.957074,25.811105 160.7375,26.6956077 160.809981,27.6555249 C160.445446,28.764116 160.225872,29.8716298 160.225872,31.274337 C159.787791,31.7171271 159.641764,32.5294475 159.202616,32.8979006 C158.839147,33.4150276 158.618508,34.078674 158.4,34.6701381 C157.67093,35.3348619 157.012209,36.071768 156.647674,37.1060221 C156.0625,37.4755525 155.624419,37.9926796 155.259884,38.5098066 C154.602229,38.9525967 153.871027,39.3210497 153.432946,39.9857735 C152.629264,40.3553039 151.972674,40.7980939 151.315019,41.315221 C150.146802,41.4617403 149.269574,41.9799448 148.611919,42.7168508 C148.401938,42.6909945 148.205814,42.6780663 148.022481,42.6780663 C147.183624,42.6780663 146.595252,42.9323204 146.054845,43.2350552 C144.855717,43.2350552 143.656589,43.6412155 142.457461,43.6412155 C142.123837,43.6412155 141.789147,43.6099724 141.455523,43.5291713 C141.035562,43.6713812 140.564438,43.729558 140.080523,43.729558 C139.04874,43.729558 137.963663,43.4623757 137.217539,43.1617956 L135.902229,43.1617956 M141.74438,0.721823204 C140.750969,0.721823204 139.87907,0.826325967 138.89845,0.929751381 C138.093702,0.929751381 137.290019,1.0040884 136.63343,1.15168508 C136.34031,1.22709945 136.048256,1.4479558 135.829748,1.4479558 C135.391667,1.59555249 135.026066,1.52121547 134.660465,1.59555249 C134.29593,1.66881215 134.076357,1.89074586 133.710756,1.96400552 C133.345155,2.03834254 133.054167,2.03834254 132.688566,2.18593923 C131.738857,2.77632597 130.497093,2.99718232 129.693411,3.66082873 C128.597674,4.10469613 128.014632,4.99135359 126.699322,5.21328729 C125.603585,6.17212707 124.581395,7.1320442 123.266085,7.87110497 C122.82907,8.3871547 122.534884,8.97754144 122.096802,9.49359116 C121.659787,10.0117956 121.074612,10.381326 120.709012,10.8973757 C120.490504,11.2658287 120.344477,11.8572928 120.124903,12.2268232 L119.759302,12.5209392 C119.686822,12.6696133 119.759302,12.891547 119.686822,13.0380663 C119.614341,13.1124033 119.394767,13.185663 119.321221,13.3332597 L119.102713,13.7027901 C118.225484,14.8092265 117.787403,16.213011 117.275775,17.6889779 C117.057267,18.6499724 116.91124,19.6098895 116.54564,20.4211326 C116.327132,22.2666298 116.253585,24.1864641 116.253585,26.1806354 C116.180039,26.8442818 116.107558,27.5090055 116.107558,28.0993923 C116.180039,29.2823204 116.91124,30.2400829 116.692733,31.4219337 C117.130814,32.3818508 117.495349,33.4150276 117.713857,34.6701381 C119.24874,37.4755525 120.928585,40.2066298 123.120058,42.3483978 C123.777713,43.1617956 124.799903,43.6035083 125.311531,44.5634254 C126.260174,45.0051381 127.063857,45.6720166 127.941085,46.186989 C128.963275,46.7795304 130.059012,47.5175138 131.227229,47.8848895 C131.373256,47.9603039 131.520349,48.1068232 131.738857,48.1811602 C132.178004,48.2554972 132.615019,48.3276796 133.054167,48.4763536 L133.126647,48.6982873 C133.175678,48.7230663 133.223643,48.7306077 133.270543,48.7306077 C133.362209,48.7306077 133.443217,48.6982873 133.492248,48.6982873 C134.076357,48.994558 134.660465,49.14 135.244574,49.4373481 C135.436434,49.409337 135.618702,49.3974862 135.791376,49.3974862 C136.541764,49.3974862 137.135465,49.625884 137.729167,49.8058011 C138.021221,49.7864088 138.299419,49.7777901 138.565891,49.7777901 C139.367442,49.7777901 140.065601,49.8607459 140.723256,50.0266575 C142.989341,49.8058011 145.544283,49.9523204 147.443702,49.288674 C148.466957,48.994558 149.635174,48.7726243 150.511337,48.2554972 C151.534593,47.9603039 152.556783,47.5896961 153.287984,47.0003867 C154.382655,46.7051934 154.967829,45.8928729 156.0625,45.5966022 L158.4,43.825442 C158.911628,43.0131215 160.007364,42.6435912 160.445446,41.758011 C161.833236,40.4285635 162.855426,38.656326 164.024709,37.1060221 C164.315698,35.7776519 165.338953,34.7444751 165.704554,33.3406906 C165.924128,32.8246409 165.851647,32.2331768 165.996609,31.6438674 C165.996609,31.4951934 166.142636,31.348674 166.217248,31.1278177 C166.362209,30.3887569 166.43469,29.6486188 166.654264,28.838453 C166.580717,26.9175414 166.72781,25.1463812 166.800291,23.1522099 L166.654264,23.0056906 C166.580717,21.5286464 165.996609,20.4211326 166.070155,18.723232 C165.632074,17.9841713 165.486047,17.0253315 165.047965,16.3616851 C164.901938,15.4006906 164.170736,14.9589779 164.09719,13.9236464 C163.294574,12.9637293 162.709399,11.7096961 161.833236,10.8230387 C161.103101,9.71552486 160.153391,8.75560773 159.423256,7.65024862 C158.618508,7.27964088 157.889438,6.83685083 157.304264,6.24646409 C156.573062,5.8769337 155.916473,5.35872928 155.404845,4.77049724 C153.432946,4.25229282 152.556783,2.62872928 150.074322,2.62872928 C149.562694,2.2591989 149.051066,1.96400552 148.319864,1.74207182 C147.881783,1.59555249 147.224128,1.4479558 146.638953,1.37254144 C146.054845,1.22709945 145.471802,1.07734807 144.887694,1.0040884 C144.692636,1.0040884 144.465601,1.03640884 144.226841,1.03640884 C144.108527,1.03640884 143.98595,1.0288674 143.864438,1.0040884 C143.572384,1.0040884 143.35281,0.783232044 143.060756,0.783232044 C142.589632,0.739060773 142.15688,0.721823204 141.74438,0.721823204" id="Fill-3" sketch:type="MSShapeGroup"></path>
                <path d="M220.206783,1.77008287 C219.162209,1.77008287 218.089922,1.99201657 217.418411,2.40679558 C216.835368,3.58864641 217.127422,5.13895028 217.127422,6.61599448 L216.835368,10.8973757 C216.980329,11.3390884 216.980329,11.9316298 217.127422,12.3000829 C216.906783,13.9236464 217.053876,15.770221 217.127422,17.0996685 C217.197771,19.9783425 217.053876,23.0789503 217.127422,26.0330387 C217.127422,26.8442818 217.197771,27.6555249 217.197771,28.4689227 C217.197771,29.2069061 216.980329,29.8716298 216.980329,30.6096133 C216.980329,31.1278177 217.127422,31.7171271 217.127422,32.2331768 C217.053876,33.4150276 216.687209,34.4503591 216.760756,35.5557182 C216.468702,35.8509116 216.32374,36.369116 216.250194,36.8840884 C215.957074,37.5498895 215.299419,37.8440055 215.00843,38.581989 C214.934884,39.5429834 214.131202,39.6905801 213.840213,40.5029006 C213.328585,40.7980939 212.743411,41.0943646 212.378876,41.6104144 C211.575194,41.9045304 211.064632,42.4227348 210.26095,42.7168508 C209.383721,43.0863812 208.286919,43.2350552 207.338275,43.6035083 C206.850097,43.6606077 206.401357,43.683232 205.973934,43.683232 C204.736434,43.683232 203.674806,43.4914641 202.371221,43.3826519 C201.422578,43.0131215 200.545349,42.5692541 199.449612,42.3483978 C198.354942,41.5371547 197.257074,40.7980939 196.383043,39.7638398 C195.358721,38.4354696 194.774612,36.663232 194.045543,34.9653315 C194.045543,33.9321547 194.045543,32.9733149 193.97093,31.9379834 C193.897384,31.0524033 193.606395,30.1668232 193.459302,29.2823204 C194.189438,27.1394751 193.606395,24.0388674 193.386822,21.7495028 C193.827035,20.9382597 193.751357,20.0516022 193.751357,19.1660221 C193.678876,18.7975691 193.827035,18.5023757 193.827035,18.1328453 C193.827035,17.3937845 193.678876,16.6568785 193.751357,15.9167403 C193.751357,14.8835635 193.897384,13.7771271 193.827035,12.7428729 C193.751357,11.7096961 193.606395,10.6765193 193.606395,9.64226519 C193.606395,8.23955801 193.678876,6.61599448 193.751357,5.35872928 C193.751357,4.62074586 193.827035,3.81058011 193.751357,3.21803867 C193.606395,2.62872928 193.240795,2.2591989 192.802713,1.81533149 C192.282558,1.81533149 191.630233,1.78516575 190.970446,1.78516575 C189.86938,1.78516575 188.749128,1.87135359 188.200194,2.33245856 C187.981686,2.40679558 187.981686,2.70198895 187.835659,2.84958564 C187.689632,3.14585635 187.396512,3.21803867 187.471124,3.58864641 C187.322965,4.17903315 187.689632,4.77049724 187.763178,5.43414365 C187.763178,5.80259669 187.616085,6.0988674 187.616085,6.46839779 C187.616085,6.83685083 187.689632,7.27964088 187.763178,7.65024862 C187.763178,7.65024862 187.616085,7.94328729 187.616085,8.09303867 C187.689632,10.0850552 187.543605,12.1524862 187.616085,14.0712431 C187.689632,15.4750276 187.543605,16.8777348 187.835659,18.1328453 C187.322965,20.5687293 188.127713,23.3741436 187.471124,25.811105 C187.835659,27.9507182 187.909205,30.0935635 187.616085,32.2331768 C187.689632,32.6770442 188.055233,32.8979006 188.055233,33.4893646 C187.835659,35.6300552 188.565795,37.6974862 188.857849,39.6905801 C189.587984,40.5772376 190.172093,41.683674 190.829748,42.7168508 C191.488469,43.751105 192.364632,44.4169061 193.168314,45.3757459 C193.97093,45.7441989 194.556105,46.335663 195.21376,46.8517127 C196.089922,47.2212431 196.820058,47.7394475 197.55126,48.2554972 C198.64593,48.4763536 199.377132,49.0678177 200.618895,49.2154144 C201.641085,49.5095304 202.810368,49.6582044 203.832558,50.0266575 L207.556783,50.0266575 C208.872093,49.6582044 210.480523,49.5095304 211.794767,49.0678177 C213.036531,48.5496133 213.98624,47.8116298 215.372965,47.4431768 C216.760756,46.335663 218.149612,45.1538122 219.609884,44.0462983 C219.755911,43.5291713 220.193992,43.2350552 220.341085,42.7168508 C220.63314,42.2751381 220.997674,41.9799448 221.143702,41.389558 C221.72781,40.5772376 221.72781,39.2477901 222.385465,38.5098066 C223.190213,36.369116 223.190213,33.858895 223.409787,31.4219337 C223.190213,30.905884 223.409787,29.8716298 223.190213,29.4277624 C223.628295,28.5421823 223.190213,27.2870718 223.409787,26.4014917 C223.409787,26.253895 223.261628,26.253895 223.335174,26.0319613 C223.115601,25.0709669 223.190213,23.5228177 223.335174,22.5618232 C222.968508,21.5286464 223.190213,19.9783425 222.968508,18.7975691 C223.042054,18.0595856 223.042054,17.6889779 223.190213,16.8777348 C223.190213,14.7370442 222.897093,11.9316298 223.335174,9.71552486 C223.190213,8.97754144 222.824612,8.3871547 222.751066,7.50049724 C223.190213,6.0988674 223.409787,3.88276243 222.751066,2.40679558 C222.179748,1.97370166 221.206589,1.77008287 220.206783,1.77008287" id="Fill-4" sketch:type="MSShapeGroup"></path>
                <path d="M259.226938,1.72698895 C259.142733,1.72698895 259.060659,1.73237569 258.979651,1.74207182 C258.249516,1.74207182 257.738953,1.89074586 257.152713,1.96508287 C256.693314,1.87781768 256.223256,1.84765193 255.741473,1.84765193 C254.997481,1.84765193 254.225775,1.91983425 253.428488,1.96400552 L253.426357,1.96400552 C253.283527,1.96400552 253.282461,1.81533149 253.135368,1.81533149 C252.915795,1.81533149 252.915795,1.96508287 252.624806,1.96508287 C251.675097,1.96400552 250.652907,1.74207182 249.628585,1.74207182 C248.242926,1.74207182 247.073643,2.03834254 246.050388,2.33245856 C245.467345,2.4811326 244.882171,2.55439227 244.443023,2.99718232 C244.298062,4.47422652 244.51657,6.39406077 245.246705,7.27964088 C245.466279,7.42723757 245.684787,7.4638674 245.912888,7.4638674 C246.140988,7.4638674 246.379748,7.42723757 246.635562,7.42723757 C247.146124,7.42723757 247.730233,7.50049724 248.242926,7.50049724 C249.19157,7.50049724 250.287306,7.27964088 251.017442,7.27964088 C251.384109,7.27964088 251.675097,7.42723757 251.968217,7.42723757 C252.729264,7.38522099 253.441279,7.34212707 254.131977,7.34212707 C254.635078,7.34212707 255.127519,7.36475138 255.618895,7.42723757 C256.131589,7.87110497 256.131589,8.53475138 256.203004,9.27273481 C256.422578,11.4877624 256.203004,14.2931768 256.351163,16.2862707 C256.203004,17.0996685 256.058043,17.9841713 256.131589,18.9440884 C256.131589,19.5355525 256.351163,20.1270166 256.422578,20.790663 C256.49719,21.3821271 256.422578,22.1201105 256.422578,22.7837569 C256.422578,23.3741436 256.569671,24.1121271 256.569671,24.6292541 C256.49719,25.0709669 256.203004,25.4415746 256.351163,25.811105 C256.49719,26.6956077 256.569671,28.1726519 256.351163,29.0593094 C256.641085,30.3887569 256.569671,31.6438674 256.641085,32.8979006 C255.984496,35.4824586 257.007752,38.3611326 256.422578,40.7980939 C256.569671,41.2398066 256.714632,41.6104144 256.788178,42.1264641 C256.569671,43.4559116 256.641085,45.3014088 256.641085,46.4089227 C256.714632,46.7795304 256.49719,47.0736464 256.569671,47.3688398 C256.641085,47.8848895 256.934205,48.3276796 257.152713,48.6982873 C257.601453,48.8965193 258.168508,48.9643923 258.770736,48.9643923 C259.738566,48.9643923 260.799128,48.7887845 261.609205,48.6982873 C262.557849,47.6640331 262.557849,45.8185359 262.557849,44.0462983 C262.557849,41.4617403 262.193314,38.730663 262.413953,36.369116 C262.193314,35.6300552 261.828779,34.9653315 261.755233,34.078674 C261.681686,33.4893646 262.193314,33.561547 262.047287,32.8979006 C262.047287,32.0123204 262.047287,31.1278177 262.340407,30.6096133 C262.193314,29.2823204 261.97374,27.8774586 261.97374,26.4747514 C261.97374,25.6635083 262.120833,24.8501105 261.828779,24.0388674 C261.97374,21.8981768 262.193314,19.5355525 261.97374,17.6889779 C262.193314,16.9509945 262.340407,16.1397514 262.340407,15.3252762 C262.265795,14.2931768 261.828779,13.2610773 261.755233,12.3000829 C262.120833,11.6364365 261.828779,10.3059116 262.193314,9.64226519 C262.193314,8.53475138 262.340407,7.65024862 262.99593,7.27964088 C263.313566,7.25162983 263.666376,7.2419337 264.042636,7.2419337 C264.443411,7.2419337 264.868702,7.25270718 265.305717,7.26348066 C265.741667,7.27425414 266.188275,7.28502762 266.629554,7.28502762 C267.532364,7.28502762 268.412791,7.23977901 269.132267,7.05878453 C269.886919,7.1341989 270.837694,7.28933702 271.710659,7.28933702 C272.527132,7.28933702 273.276453,7.15359116 273.734787,6.68925414 C274.172868,5.95019337 273.880814,4.47422652 273.953295,3.36671271 L273.734787,2.84958564 C273.369186,2.40679558 272.712597,2.2591989 272.200969,1.96400552 L272.191376,1.96400552 C271.319477,1.96400552 270.517926,1.81533149 269.570349,1.81533149 C268.621705,1.81533149 267.744477,1.96508287 266.795833,1.96508287 C265.772578,1.89074586 264.823934,1.81533149 263.800678,1.81533149 C262.777422,1.81533149 261.828779,1.96508287 260.805523,1.96508287 C260.302422,1.90044199 259.744961,1.72698895 259.226938,1.72698895" id="Fill-5" sketch:type="MSShapeGroup"></path>
                <path d="M10.9925388,65.5749448 C10.9360465,65.5749448 10.8795543,65.5781768 10.8251938,65.5846409 C10.3338178,65.5846409 9.98953488,65.6837569 9.59622093,65.7333149 C9.2871124,65.6751381 8.97160853,65.6546685 8.64757752,65.6546685 C8.14660853,65.6546685 7.62751938,65.7031492 7.09031008,65.7333149 C6.99224806,65.7333149 6.99224806,65.6341989 6.89312016,65.6341989 C6.74709302,65.6341989 6.74709302,65.7333149 6.54883721,65.7333149 C5.91036822,65.7333149 5.22286822,65.5846409 4.53430233,65.5846409 C3.60164729,65.5846409 2.81608527,65.7828729 2.12751938,65.981105 C1.73420543,66.080221 1.34089147,66.1308564 1.04670543,66.4292818 C0.948643411,67.4225967 1.09573643,68.7132597 1.5871124,69.3090331 C1.73420543,69.4081492 1.88236434,69.4340055 2.03585271,69.4340055 C2.18934109,69.4340055 2.34922481,69.4092265 2.51976744,69.4092265 C2.86405039,69.4092265 3.25736434,69.4587845 3.60164729,69.4587845 C4.24011628,69.4587845 4.97664729,69.3090331 5.46908915,69.3090331 C5.71424419,69.3090331 5.91036822,69.4092265 6.10755814,69.4092265 C6.61705426,69.3801381 7.09457364,69.3510497 7.55823643,69.3510497 C7.89825581,69.3510497 8.23187984,69.3661326 8.56443798,69.4092265 C8.90765504,69.7065746 8.90765504,70.1525967 8.95775194,70.6503315 C9.10484496,72.1403039 8.95775194,74.0278177 9.05581395,75.3680387 C8.95775194,75.9153315 8.85862403,76.511105 8.90765504,77.1564365 C8.90765504,77.5529006 9.05581395,77.9515193 9.10484496,78.3975414 C9.15387597,78.7961602 9.10484496,79.2928177 9.10484496,79.7399171 C9.10484496,80.1363812 9.20397287,80.6330387 9.20397287,80.9799448 C9.15387597,81.2783702 8.95775194,81.5272376 9.05581395,81.7739503 C9.15387597,82.3708011 9.20397287,83.3651934 9.05581395,83.9609669 C9.25193798,84.8551657 9.20397287,85.6987293 9.25193798,86.5422928 C8.81065891,88.2811326 9.49815891,90.2182044 9.10484496,91.8579282 C9.20397287,92.1552762 9.30203488,92.4030663 9.35106589,92.7532044 C9.20397287,93.6452486 9.25193798,94.8874309 9.25193798,95.6318785 C9.30203488,95.8807459 9.15387597,96.0789779 9.20397287,96.2772099 C9.25193798,96.6251934 9.44912791,96.9236188 9.59622093,97.1714088 C9.89786822,97.305 10.2794574,97.351326 10.685562,97.351326 C11.3368217,97.351326 12.0488372,97.2328177 12.5935078,97.1714088 C13.2330426,96.4765193 13.2330426,95.234337 13.2330426,94.0438674 C13.2330426,92.3050276 12.9868217,90.4670718 13.1339147,88.8769061 C12.9868217,88.381326 12.7406008,87.9331492 12.6915698,87.3373757 C12.6425388,86.9409116 12.9868217,86.9893923 12.8887597,86.5422928 C12.8887597,85.9465193 12.8887597,85.3518232 13.0848837,85.0038398 C12.9868217,84.1096409 12.8397287,83.165884 12.8397287,82.2221271 C12.8397287,81.676989 12.9377907,81.1296961 12.7406008,80.5834807 C12.8397287,79.1441436 12.9868217,77.5529006 12.8397287,76.3117956 C12.9868217,75.8151381 13.0848837,75.2689227 13.0848837,74.7237845 C13.0358527,74.0278177 12.7406008,73.3329282 12.6915698,72.6875967 C12.9377907,72.2394199 12.7406008,71.3462983 12.9868217,70.8981215 C12.9868217,70.1525967 13.0848837,69.5568232 13.5272287,69.3090331 C13.7393411,69.2907182 13.9749031,69.2842541 14.2264535,69.2842541 C14.496124,69.2842541 14.7839147,69.2917956 15.0791667,69.2982597 C15.3733527,69.3058011 15.6739341,69.3133425 15.9713178,69.3133425 C16.578876,69.3133425 17.1704457,69.2831768 17.6543605,69.1603591 C18.1617248,69.2120718 18.8001938,69.3154972 19.3864341,69.3154972 C19.9364341,69.3154972 20.4406008,69.2239227 20.7497093,68.9125691 C21.0449612,68.4148343 20.8488372,67.4225967 20.8978682,66.6770718 L20.7497093,66.3290884 C20.5045543,66.0317403 20.0622093,65.931547 19.7189922,65.7333149 C19.1295543,65.7333149 18.5891473,65.6341989 17.9496124,65.6341989 C17.3111434,65.6341989 16.7217054,65.7333149 16.0821705,65.7333149 C15.3936047,65.6837569 14.7551357,65.6341989 14.0676357,65.6341989 C13.3790698,65.6341989 12.7406008,65.7333149 12.0531008,65.7333149 C11.7141473,65.690221 11.3400194,65.5749448 10.9925388,65.5749448" id="Fill-6" sketch:type="MSShapeGroup"></path>
                <path d="M36.908624,65.0632044 C36.2744186,65.0632044 35.6689922,65.1504696 35.2447674,65.3853315 C34.8525194,65.7828729 34.9505814,66.278453 34.9505814,66.7266298 C34.9505814,68.7132597 34.9996124,70.3034254 34.9996124,72.1403039 C35.0486434,73.3329282 35.0486434,74.5740331 34.9996124,75.7655801 C34.9996124,76.9582044 35.0486434,78.1012707 35.0976744,79.2421823 C35.1467054,80.5339227 34.9505814,81.7254696 35.2447674,82.8685359 C35.0486434,84.5071823 35.3438953,86.7416022 34.9996124,88.2811326 C35.2447674,91.2610773 35.0486434,94.0923481 35.0976744,96.9731768 C35.3438953,97.1714088 35.2937984,97.6185083 35.7361434,97.6680663 C35.9098837,97.7854972 36.143314,97.8264365 36.3959302,97.8264365 C36.7881783,97.8264365 37.2262597,97.7283978 37.5556202,97.6680663 C37.7890504,97.723011 38.0544574,97.7564088 38.313469,97.7564088 C38.7611434,97.7564088 39.1853682,97.6529834 39.3729651,97.3696409 C39.5690891,96.5767127 39.2258721,95.7805525 39.2258721,94.986547 C39.0777132,92.5528177 39.2749031,90.7148619 39.1278101,88.430884 C39.1768411,88.1335359 39.2749031,87.8835912 39.2749031,87.4860497 C39.3239341,87.0400276 39.0777132,86.9409116 39.1278101,86.5422928 L39.2258721,84.3595856 C39.2258721,83.5138674 39.0777132,82.6692265 39.4209302,82.073453 C39.7289729,81.9818785 40.1031008,81.9506354 40.4974806,81.9506354 C41.1743217,81.9506354 41.9097868,82.0422099 42.468314,82.073453 C42.615407,82.073453 42.7635659,82.023895 42.9106589,82.023895 C43.783624,82.0572928 44.7248062,82.1380939 45.6094961,82.1380939 C46.0198643,82.1380939 46.4185078,82.1208564 46.7926357,82.073453 C47.2349806,82.023895 47.6773256,81.7739503 48.1186047,81.7739503 C48.6110465,81.7739503 49.0533915,82.1725691 49.4946705,82.1725691 C49.8879845,82.1725691 50.1832364,82.023895 50.5264535,82.023895 C50.8547481,82.1068508 51.1819767,82.1337845 51.5092054,82.1337845 C52.1647287,82.1337845 52.8202519,82.023895 53.4747093,82.023895 C53.5141473,82.0141989 53.5589147,82.0098895 53.6068798,82.0098895 C53.7955426,82.0098895 54.0151163,82.073453 54.0151163,82.073453 C54.0396318,82.0777624 54.0652132,82.0799171 54.0929264,82.0799171 C54.1643411,82.0799171 54.2464147,82.0659116 54.3327519,82.0519061 C54.4180233,82.0379006 54.5075581,82.023895 54.5949612,82.023895 C54.7271318,82.023895 54.8539729,82.0562155 54.9499031,82.1725691 C55.1950581,82.8189779 54.9978682,83.5138674 54.9978682,84.2087569 L54.9978682,89.771105 C54.9978682,90.2677624 55.0969961,90.7654972 55.0969961,91.2610773 C55.0969961,92.1552762 55.0468992,93.0990331 54.9978682,93.993232 C54.9978682,94.8874309 55.0468992,95.7309945 54.9499031,96.5767127 C54.8507752,97.0227348 55.1950581,97.1207735 55.2440891,97.4202762 C55.5148256,97.5937293 55.8228682,97.6432873 56.149031,97.6432873 C56.4741279,97.6432873 56.817345,97.5937293 57.160562,97.5700276 C57.5272287,97.5700276 57.9077519,97.6260497 58.2637597,97.6260497 C58.5771318,97.6260497 58.8734496,97.5818785 59.1260659,97.4202762 C59.2731589,97.1714088 59.2731589,96.8245028 59.2731589,96.425884 C59.2241279,95.9303039 59.0770349,95.383011 59.026938,94.8378729 C58.928876,93.2487845 59.1750969,91.6586188 59.1750969,90.0706077 C59.1750969,89.1257735 59.026938,88.1830939 59.026938,87.2371823 L59.026938,86.6424862 C59.026938,85.7978453 58.977907,85.0533978 59.1260659,84.3595856 C59.2731589,83.0656906 59.1260659,81.6263536 59.1260659,80.5834807 C59.1260659,80.3841713 59.1750969,80.1363812 59.1750969,79.8875138 C59.1750969,79.3919337 59.026938,78.9448343 59.026938,78.4977348 C59.026938,77.6530939 59.0770349,76.758895 59.1260659,76.2116022 C59.1260659,75.9638122 59.1750969,75.7655801 59.1260659,75.5177901 C58.928876,74.5244751 59.1750969,73.4816022 59.1750969,72.4387293 C59.1750969,71.5445304 58.977907,70.6503315 59.1260659,69.7065746 C58.5366279,68.4148343 59.665407,66.3290884 58.7327519,65.3368508 C58.123062,65.2657459 57.5133721,65.2054144 56.9239341,65.2054144 C56.2801357,65.2054144 55.6619186,65.2775967 55.0969961,65.4844475 C54.9978682,65.8324309 54.8507752,66.080221 54.8507752,66.4292818 C54.8507752,66.7761878 54.9978682,67.1748066 54.9978682,67.5227901 C54.9978682,68.1174862 54.8998062,68.7132597 54.9499031,69.3090331 C54.9499031,69.6570166 55.0468992,70.2043094 55.0969961,70.3529834 L54.9978682,70.5016575 C54.9978682,70.6998895 55.0969961,70.8981215 55.0969961,71.146989 C55.0969961,71.3969337 54.9978682,71.5940884 54.9978682,71.8429558 L55.0969961,76.511105 C55.1460271,76.9086464 54.9978682,77.1564365 54.9978682,77.4548619 C54.8507752,77.6530939 54.9499031,78.1012707 54.7036822,78.1497514 C54.194186,78.2467127 53.6271318,78.2758011 53.0334302,78.2758011 C52.5921512,78.2758011 52.1348837,78.2596409 51.6754845,78.2434807 C51.2150194,78.2273204 50.7524225,78.2111602 50.3004845,78.2111602 C49.9412791,78.2111602 49.5895349,78.2208564 49.2495155,78.2499448 C48.9542636,78.2068508 48.7314922,78.0904972 48.3648256,78.0904972 C48.3030039,78.0904972 48.2379845,78.0937293 48.1676357,78.1012707 C48.085562,78.0915746 48.0056202,78.0872652 47.928876,78.0872652 C47.5973837,78.0872652 47.3181202,78.1691436 47.0388566,78.2499448 C46.3257752,78.1605249 45.5402132,78.1422099 44.7162791,78.1422099 C44.176938,78.1422099 43.6216085,78.1497514 43.0577519,78.1497514 C42.3148256,78.1497514 41.5260659,78.2585635 40.8023256,78.2585635 C40.2342054,78.2585635 39.7065891,78.191768 39.2749031,77.9515193 C39.0777132,77.0066851 39.2749031,76.0629282 39.0286822,75.2689227 C39.1768411,74.6246685 39.2749031,73.8780663 39.2749031,73.1831768 C39.2749031,71.9420718 39.2258721,70.6007735 39.2258721,69.4587845 C39.1768411,68.0679282 39.5200581,66.6770718 39.2258721,65.3853315 C38.6385659,65.2161878 37.7485465,65.0632044 36.908624,65.0632044" id="Fill-7" sketch:type="MSShapeGroup"></path>
                <path d="M85.9534884,65.3853315 C85.6102713,65.4348895 85.2659884,65.5846409 84.9217054,65.5846409 C84.2342054,65.5846409 83.4966085,65.4844475 82.7600775,65.4844475 C81.1537791,65.4844475 79.6370155,65.5296961 78.1042636,65.5296961 C77.3378876,65.5296961 76.568314,65.5178453 75.781686,65.4844475 C75.340407,65.6837569 74.7499031,65.7333149 74.5047481,66.1308564 C74.2585271,67.0756906 74.4557171,68.1174862 74.5047481,69.1603591 C74.5047481,70.2043094 74.5537791,71.295663 74.5537791,72.2394199 C74.406686,72.7856354 74.357655,73.4320442 74.3075581,74.0773757 C74.3075581,75.071768 74.357655,76.1135635 74.5537791,76.858011 C74.5537791,77.1068785 74.357655,77.2070718 74.406686,77.5529006 C74.5537791,77.8534807 74.6028101,78.2499448 74.5537791,78.6970442 C74.4557171,79.2421823 74.7499031,79.3919337 74.7008721,79.8875138 C74.406686,80.8819061 74.6518411,82.023895 74.6518411,83.165884 C74.6028101,84.6062983 74.5537791,85.9971547 74.6518411,87.2371823 C74.4557171,87.9837845 74.5047481,88.8284254 74.6518411,89.6224309 C74.7008721,89.9704144 74.4557171,89.9704144 74.5047481,90.3183978 C74.6518411,90.5672652 74.7499031,90.8635359 74.5537791,91.1619613 C74.6518411,91.4603867 74.6028101,91.9559669 74.7008721,92.2543923 C74.7008721,92.4030663 74.6518411,92.5528177 74.6518411,92.7532044 C74.5537791,93.2983425 74.6028101,94.3401381 74.6518411,94.936989 C74.6518411,95.5338398 74.4557171,96.0789779 74.7008721,96.5767127 C74.996124,96.8245028 75.2412791,97.1714088 75.634593,97.2716022 C76.224031,97.4202762 76.8859496,97.4579834 77.5414729,97.4579834 C78.2001938,97.4579834 78.8525194,97.4202762 79.4185078,97.4202762 C80.2051357,97.4202762 80.9906977,97.5193923 81.7773256,97.5193923 C82.5138566,97.5193923 83.3004845,97.5193923 83.9400194,97.3696409 C84.3343992,97.4191989 84.7426357,97.4353591 85.1540698,97.4353591 C85.495155,97.4353591 85.8383721,97.4245856 86.1815891,97.4138122 C86.5248062,97.4030387 86.8669574,97.3922652 87.2037791,97.3922652 C87.7409884,97.3922652 88.2643411,97.4202762 88.7546512,97.5193923 C89.0168605,97.5193923 89.2012597,97.3620994 89.4815891,97.3620994 C89.5156977,97.3620994 89.551938,97.3642541 89.5903101,97.3696409 C89.6659884,97.3610221 89.748062,97.3588674 89.8322674,97.3588674 C89.8994186,97.3588674 89.9676357,97.3599448 90.0369186,97.3620994 C90.1062016,97.3631768 90.1744186,97.3653315 90.2426357,97.3653315 C90.5208333,97.3653315 90.779845,97.3373204 90.9162791,97.1714088 C91.260562,97.0712155 91.653876,96.9731768 91.751938,96.5767127 C91.899031,95.5338398 92.0471899,94.1925414 91.4577519,93.5956906 C90.868314,93.4470166 90.2554264,93.4093094 89.6425388,93.4093094 C89.0264535,93.4093094 88.4114341,93.4470166 87.8209302,93.4470166 C87.3785853,93.4470166 86.9863372,93.3479006 86.5429264,93.3479006 C86.2487403,93.3479006 85.9534884,93.4965746 85.6593023,93.4965746 C85.6006783,93.5062707 85.5399225,93.5105801 85.4770349,93.5105801 C85.2286822,93.5105801 84.9611434,93.4470166 84.7245155,93.4470166 C84.4495155,93.4470166 84.1745155,93.5105801 83.8995155,93.5105801 C83.8302326,93.5105801 83.7620155,93.5062707 83.6927326,93.4965746 C83.3495155,93.4965746 83.0542636,93.3479006 82.7099806,93.3479006 C82.4157946,93.3479006 82.1205426,93.4470166 81.8263566,93.4470166 C81.5311047,93.4470166 81.1878876,93.3479006 80.8926357,93.3479006 C80.5526163,93.3479006 80.211531,93.4944199 79.8491279,93.4944199 C79.740407,93.4944199 79.6295543,93.4814917 79.5165698,93.4470166 C78.9761628,93.1992265 78.6318798,92.7532044 78.4357558,92.2048343 C78.3366279,91.7577348 78.4847868,91.1124033 78.4357558,90.4670718 C78.6809109,90.2677624 78.4847868,89.9208564 78.5338178,89.771105 C78.5338178,89.4748343 78.6318798,89.2248895 78.6809109,88.8769061 L78.4357558,87.3869337 C78.3867248,86.6931215 78.3867248,85.5500552 78.4357558,84.7560497 C78.6318798,84.4080663 78.3867248,83.6625414 78.6809109,83.4147514 C78.5338178,82.9180939 78.7310078,82.6196685 78.9761628,82.3223204 C79.4771318,82.1003867 80.1784884,82.0605249 80.8254845,82.0605249 C81.1921512,82.0605249 81.5417636,82.073453 81.8263566,82.073453 C82.0224806,82.073453 82.2196705,82.023895 82.3667636,82.023895 C83.7428295,81.974337 84.9707364,81.924779 86.1997093,81.924779 C86.6910853,81.924779 87.1334302,82.023895 87.6738372,82.023895 C87.9680233,82.023895 88.2856589,81.9797238 88.5947674,81.9797238 C88.7493217,81.9797238 88.9028101,81.9904972 89.0499031,82.023895 C89.8844961,81.7739503 91.0143411,81.8741436 91.604845,81.3774862 C92.0471899,80.4832873 91.4577519,79.4910497 91.604845,78.3975414 C91.0623062,77.996768 90.2010659,77.9439779 89.2758721,77.9439779 C88.9422481,77.9439779 88.6011628,77.9515193 88.2632752,77.9515193 C87.7260659,77.7705249 87.1419574,77.7360497 86.5546512,77.7360497 C86.3734496,77.7360497 86.1911822,77.7392818 86.0099806,77.7425138 C85.8287791,77.7457459 85.6497093,77.7489779 85.4717054,77.7489779 C84.9824612,77.7489779 84.5102713,77.7241989 84.0860465,77.6035359 C83.9464147,77.7048066 83.7993217,77.7317403 83.6341085,77.7317403 C83.5371124,77.7317403 83.4337209,77.7231215 83.3218023,77.7134254 C83.2109496,77.7037293 83.0905039,77.6951105 82.9604651,77.6951105 C82.8965116,77.6951105 82.8293605,77.6972652 82.7600775,77.7026519 C82.1514535,77.7479006 81.419186,77.8351657 80.7284884,77.8351657 C79.9130814,77.8351657 79.1562984,77.7134254 78.7310078,77.2555525 C78.4357558,76.610221 78.5338178,75.418674 78.5839147,74.8713812 C78.6318798,74.2756077 78.4847868,73.8285083 78.4357558,73.3329282 C78.7310078,72.4882873 78.5839147,71.5940884 78.5839147,70.6007735 C78.8290698,70.3529834 78.7310078,69.8056906 79.0742248,69.7065746 C79.2415698,69.5385083 79.5187016,69.4803315 79.8256783,69.4803315 C80.0612403,69.4803315 80.3138566,69.5148066 80.5483527,69.5568232 C81.4564922,69.4081492 82.3880814,69.3715193 83.3324612,69.3715193 C84.2800388,69.3715193 85.240407,69.4092265 86.1997093,69.4092265 C87.145155,69.4092265 88.0906008,69.2616298 89.0136628,69.2616298 C89.2897287,69.2616298 89.5636628,69.274558 89.8354651,69.3090331 C90.4739341,69.1603591 91.4087209,69.2594751 91.5067829,68.565663 C91.604845,67.6714641 91.604845,66.2299724 91.064438,65.7333149 C90.1424419,65.5092265 89.1373062,65.4812155 88.0906008,65.4812155 C87.7431202,65.4812155 87.3903101,65.4844475 87.0343023,65.4844475 C86.6910853,65.4844475 86.2977713,65.3853315 85.9534884,65.3853315" id="Fill-8" sketch:type="MSShapeGroup"></path>
                <path d="M140.636919,65.0772099 C140.500484,65.0772099 140.356589,65.080442 140.200969,65.0879834 C139.856686,65.1881768 139.659496,65.5350829 139.267248,65.6341989 C138.725775,65.6837569 138.431589,65.981105 137.891182,66.0317403 C137.546899,66.4292818 137.055523,66.7266298 136.515116,66.8763812 C136.368023,67.1241713 136.219864,67.3224033 135.875581,67.3719613 C135.581395,67.9192541 135.090019,68.3663536 134.647674,68.7628177 C134.548547,69.3585912 134.00814,69.6570166 133.812016,70.2043094 C133.713953,70.3034254 133.762984,70.5016575 133.713953,70.6503315 L133.56686,70.7990055 C133.418702,71.295663 133.467733,71.6436464 133.321705,72.0411878 C133.369671,72.8858287 133.222578,73.4816022 133.271609,74.2756077 C133.369671,75.2193646 133.615891,76.0144475 133.861047,76.858011 C134.401453,77.6035359 135.040988,78.2499448 135.630426,78.8952762 C136.318992,79.0935083 136.858333,79.4910497 137.349709,79.8875138 C137.891182,80.0372652 138.333527,80.2850552 138.725775,80.5834807 C139.610465,80.7310773 140.101841,81.1792541 140.987597,81.2298895 C141.772093,81.7254696 142.853973,81.974337 143.639535,82.4699171 C144.426163,82.9676519 145.16376,83.5138674 146.047384,83.9609669 C146.391667,84.4576243 146.932074,84.8045304 147.275291,85.3518232 C147.325388,85.6502486 147.471415,85.7978453 147.570543,85.9971547 C147.619574,86.7911602 148.061919,87.1887017 148.11095,87.9331492 C148.11095,88.8284254 147.619574,89.1753315 147.668605,90.0706077 C147.374419,90.5672652 147.177229,91.2125967 146.883043,91.7081768 C146.440698,92.1046409 145.950388,92.3535083 145.554942,92.8006077 C144.623353,93.0990331 143.78876,93.6452486 142.607752,93.7443646 C142.469186,93.7551381 142.328488,93.7594475 142.184593,93.7594475 C141.993798,93.7594475 141.795543,93.7519061 141.589826,93.745442 C141.384109,93.7379006 141.169864,93.7303591 140.944961,93.7303591 C140.784012,93.7303591 140.617733,93.7335912 140.446124,93.7443646 C139.463372,93.4965746 138.67781,93.0494751 137.59593,92.9008011 C137.448837,92.6012983 137.055523,92.5528177 136.957461,92.2048343 C136.809302,92.0561602 136.809302,91.8579282 136.71124,91.6586188 C136.318992,91.3106354 135.973643,90.9637293 135.728488,90.4670718 L135.482267,89.9704144 C135.385271,89.7226243 135.286143,89.3746409 135.237112,89.0772928 C135.040988,88.8769061 135.188081,88.331768 134.794767,88.331768 C134.715891,88.2875967 134.629554,88.2703591 134.540019,88.2703591 C134.380136,88.2703591 134.208527,88.3253039 134.03905,88.381326 C133.869574,88.4373481 133.703295,88.4922928 133.553004,88.4922928 C133.469864,88.4922928 133.390988,88.4750552 133.321705,88.430884 C132.780233,88.53 132.239826,88.629116 131.797481,88.8284254 C131.502229,89.4241989 131.699419,90.1686464 131.797481,90.8635359 C131.94564,91.1619613 132.190795,91.4108287 132.239826,91.8579282 C132.386919,92.2543923 132.632074,92.5032597 132.683236,92.9503591 C133.026453,93.1992265 133.222578,93.5461326 133.467733,93.8434807 C133.713953,94.1429834 134.058236,94.3401381 134.156298,94.7872376 C135.13905,95.0867403 135.581395,95.9303039 136.417054,96.3278453 C137.202616,96.8245028 138.234399,97.0712155 139.071124,97.5193923 C139.159593,97.5096961 139.243798,97.5053867 139.324806,97.5053867 C139.688275,97.5053867 139.977132,97.5872652 140.299031,97.6680663 C140.615601,97.6777624 140.900194,97.6820718 141.165601,97.6820718 C142.295446,97.6820718 143.05436,97.6098895 144.328101,97.5700276 C144.96657,97.4202762 145.457946,97.1207735 146.243508,97.1207735 C146.636822,96.7738674 147.227326,96.6747514 147.570543,96.3278453 C148.061919,96.0789779 148.454167,95.7309945 148.897578,95.4832044 C149.094767,95.234337 149.24186,94.936989 149.537112,94.7872376 C149.487016,94.5394475 149.733236,94.4898895 149.830233,94.3907735 C150.027422,94.1925414 150.174516,94.0438674 150.271512,93.8434807 C150.421802,93.5956906 150.469767,93.3479006 150.617926,93.1496685 C150.912112,92.9503591 151.01124,92.5528177 151.206298,92.2543923 C151.354457,91.9559669 151.354457,91.6090608 151.453585,91.3106354 C151.550581,91.0143646 151.746705,90.8139779 151.845833,90.4670718 C151.894864,90.2182044 151.943895,89.7226243 151.894864,89.5233149 C151.69874,88.53 152.485368,87.3373757 151.992926,86.1953867 C152.141085,85.3022652 151.206298,84.4576243 151.060271,83.5138674 C150.371705,82.7187845 149.733236,81.8741436 148.947674,81.1296961 C148.357171,80.7817127 147.816764,80.2850552 147.177229,79.9877072 C146.932074,79.7399171 146.636822,79.5406077 146.243508,79.4404144 C145.900291,79.2421823 145.605039,79.0439503 145.261822,78.8952762 C144.181008,78.5968508 143.295252,78.1497514 142.313566,77.801768 C141.330814,77.4548619 140.544186,76.858011 139.463372,76.610221 C138.824903,76.0629282 137.989244,75.7160221 137.448837,75.1202486 C137.251647,74.6246685 137.055523,74.1269337 136.957461,73.5311602 C137.153585,72.2900552 137.644961,71.3969337 138.136337,70.4025414 C138.971996,69.5568232 140.003779,68.9621271 141.379845,68.6130663 C141.552519,68.6281492 141.721996,68.6346133 141.887209,68.6346133 C142.282655,68.6346133 142.654651,68.5990608 143,68.565663 C144.033915,68.7628177 144.868508,69.1097238 145.704167,69.4587845 C145.801163,69.6074586 145.85126,69.7065746 146.047384,69.7065746 C146.293605,70.054558 146.587791,70.3034254 146.784981,70.6503315 C147.128198,70.8981215 147.177229,71.493895 147.717636,71.493895 C147.763469,71.4971271 147.807171,71.4982044 147.849806,71.4982044 C148.539438,71.4982044 148.821899,71.1265193 149.192829,70.7990055 C149.684205,70.5501381 150.322674,70.4520994 150.421802,69.856326 C150.421802,68.7132597 149.635174,68.2661602 149.192829,67.5227901 C148.897578,67.5227901 148.799516,67.1748066 148.602326,67.0756906 C148.357171,66.9259392 148.061919,66.8763812 147.816764,66.7266298 L147.717636,66.5779558 L147.520446,66.5273204 C147.128198,66.2299724 146.832946,65.931547 146.489729,65.7333149 C146.382074,65.7559392 146.285078,65.7656354 146.196609,65.7656354 C145.709496,65.7656354 145.454748,65.4693646 145.16376,65.3853315 C145.114729,65.3777901 145.066764,65.374558 145.02093,65.374558 C144.974031,65.374558 144.928198,65.3777901 144.88343,65.3799448 C144.838663,65.3831768 144.796027,65.3853315 144.752326,65.3853315 C144.623353,65.3853315 144.500775,65.3605525 144.377132,65.2366575 C144.252422,65.2560497 144.13624,65.2635912 144.026453,65.2635912 C143.579845,65.2635912 143.248353,65.1278453 142.853973,65.0879834 C142.570446,65.1138398 142.324225,65.1235359 142.09719,65.1235359 C141.842442,65.1235359 141.611143,65.1116851 141.376647,65.0998343 C141.142151,65.0890608 140.904457,65.0772099 140.636919,65.0772099" id="Fill-9" sketch:type="MSShapeGroup"></path>
                <path d="M174.150678,86.2427901 C173.871415,86.2427901 173.594283,86.2072376 173.318217,86.0951934 C173.416279,85.4498619 173.513275,84.8551657 173.907655,84.5071823 L174.64312,83.0172099 C175.136628,82.123011 175.429748,80.9303867 176.118314,80.1870166 C176.413566,78.6970442 177.446415,77.9515193 177.739535,76.461547 C177.98469,76.1620442 178.034787,75.7160221 178.330039,75.5177901 C178.330039,74.8713812 178.477132,74.4253591 178.86938,74.1775691 C179.26376,74.2260497 179.311725,74.6246685 179.361822,74.9715746 C179.557946,75.1698066 179.606977,75.5673481 179.803101,75.7655801 C179.950194,76.2116022 180.246512,76.610221 180.443702,77.0066851 L180.983043,78.2499448 C181.327326,79.0935083 181.917829,79.7883978 182.161919,80.683674 C182.604264,81.2783702 182.997578,81.974337 183.243798,82.7683425 C183.686143,83.6129834 184.078391,84.5071823 184.618798,85.2020718 C184.569767,85.4003039 184.667829,85.4003039 184.717926,85.5500552 L184.717926,85.8980387 C184.324612,86.2460221 183.537984,86.1953867 182.850484,86.2460221 C182.507267,86.1953867 182.310078,86.0951934 181.965795,86.0951934 L180.443702,86.2955801 C180.085562,86.211547 179.573934,86.143674 179.081492,86.143674 C178.692442,86.143674 178.316182,86.1856906 178.034787,86.2955801 C177.835465,86.3289779 177.639341,86.3419061 177.445349,86.3419061 C176.779167,86.3419061 176.148159,86.1835359 175.577907,86.1458287 C175.086531,86.1458287 174.615407,86.2427901 174.150678,86.2427901 M178.821415,65.7333149 C178.428101,65.7828729 178.37907,66.1804144 178.18188,66.4292818 C178.18188,66.8257459 177.838663,66.9754972 177.789632,67.3719613 C177.200194,68.0183702 176.856977,68.9125691 176.560659,69.856326 C176.265407,70.2043094 176.118314,70.6998895 175.921124,71.146989 C175.675969,71.5445304 175.577907,72.0411878 175.233624,72.3880939 C175.233624,72.9849448 174.791279,73.5807182 174.64312,73.9287017 L174.546124,74.3251657 C174.498159,74.4253591 174.348934,74.4738398 174.299903,74.5740331 C174.253004,74.6731492 174.299903,74.8713812 174.253004,74.9715746 C174.054748,75.3680387 173.759496,75.6664641 173.563372,76.0629282 C173.318217,76.461547 173.220155,76.9086464 172.923837,77.2555525 C172.923837,77.6035359 172.678682,77.801768 172.678682,78.1497514 C172.236337,78.7455249 172.040213,79.5406077 171.597868,80.1363812 C171.450775,80.8323481 171.155523,81.3774862 170.812306,81.924779 C170.861337,82.4214365 170.469089,82.6196685 170.368895,82.8685359 C170.171705,83.265 170.122674,83.5645028 169.976647,83.9114088 C169.877519,84.1096409 169.681395,84.3089503 169.582267,84.5071823 C169.534302,84.6062983 169.582267,84.8045304 169.534302,84.9036464 C169.485271,85.0038398 169.338178,85.0533978 169.289147,85.1525138 L168.993895,85.8474033 C168.747674,86.2955801 168.600581,86.7416022 168.355426,87.1887017 C168.207267,87.4364917 168.060174,87.7359945 167.961047,88.0333425 C167.913081,88.2811326 167.764922,88.430884 167.667926,88.678674 C167.518702,88.9275414 167.518702,89.1753315 167.421705,89.4241989 C167.225581,89.8712983 166.832267,90.2182044 166.783236,90.7654972 L165.948643,92.5032597 C165.652326,93.0990331 165.309109,93.695884 165.162016,94.3907735 C164.816667,94.7387569 164.619477,95.283895 164.326357,95.7309945 C164.129167,96.2276519 163.734787,96.6251934 163.885078,97.5193923 C164.178198,98.0656077 164.865698,98.3144751 165.652326,98.3144751 C166.098934,98.2692265 166.586047,98.0591436 167.040116,98.0591436 C167.084884,98.0591436 167.130717,98.0612983 167.175484,98.0656077 C167.568798,97.6680663 168.011143,97.3696409 168.257364,96.8729834 C168.452422,96.6251934 168.452422,96.2276519 168.600581,95.9303039 C169.043992,95.3345304 169.23905,94.5394475 169.730426,93.993232 C169.779457,93.4965746 170.025678,93.2983425 170.074709,92.8006077 L170.665213,92.0055249 C170.861337,91.1619613 171.00843,90.3183978 171.746027,90.0706077 C171.959205,90.0372099 172.171318,90.0253591 172.382364,90.0253591 C172.804457,90.0253591 173.219089,90.0706077 173.612403,90.0706077 C175.215504,90.0706077 176.924128,89.9596409 178.743605,89.9596409 C179.045252,89.9596409 179.350097,89.9628729 179.65814,89.9704144 C179.950194,89.9704144 180.197481,89.8712983 180.443702,89.8217403 C180.721899,89.9046961 181.010756,89.9327072 181.311337,89.9327072 C181.911434,89.9327072 182.556298,89.8217403 183.243798,89.8217403 C184.085853,89.8217403 184.926841,89.9305525 185.800872,89.9305525 C185.945833,89.9305525 186.092926,89.9273204 186.241085,89.9208564 C186.730329,90.1686464 186.88062,90.8139779 187.076744,91.2610773 L187.321899,91.4603867 C187.470058,91.6586188 187.56812,91.8579282 187.714147,92.0055249 C187.714147,92.4030663 187.862306,92.5528177 187.862306,92.9008011 C188.108527,93.1496685 188.303585,93.3953039 188.501841,93.7443646 C188.600969,93.943674 188.501841,94.2905801 188.647868,94.4403315 C189.041182,94.986547 189.287403,95.6318785 189.581589,96.2772099 C190.023934,96.7243094 190.171027,97.4698343 190.664535,97.9169337 C190.845736,97.964337 191.014147,97.9848066 191.172965,97.9848066 C191.999031,97.9848066 192.543702,97.4138122 193.120349,97.1207735 C193.218411,96.7243094 193.611725,96.6251934 193.512597,96.0789779 C193.464632,95.6825138 193.316473,95.283895 193.316473,94.8378729 C193.072384,94.5394475 192.825097,94.1925414 192.678004,93.8434807 C192.480814,92.9988398 191.989438,92.4537017 191.745349,91.6586188 C191.253973,91.061768 191.006686,90.2182044 190.664535,89.5233149 C190.51531,89.3240055 190.613372,88.9275414 190.51531,88.7293094 C190.320252,88.430884 190.074031,88.1830939 189.877907,87.7855525 C189.435562,86.9409116 189.189341,85.8474033 188.549806,85.0533978 C188.059496,84.2087569 187.764244,83.165884 187.272868,82.3223204 C187.026647,81.4776796 186.634399,80.7817127 186.241085,80.1363812 C186.141957,79.8379558 185.945833,79.4910497 185.846705,79.3423757 C185.79874,79.1926243 185.846705,79.0935083 185.79874,78.9448343 C185.602616,78.5472928 185.405426,78.2499448 185.160271,77.9515193 C185.208236,77.3557459 184.817054,77.0066851 184.618798,76.610221 L184.520736,76.2116022 C184.373643,75.8151381 184.078391,75.7160221 183.980329,75.3680387 C183.833236,74.7237845 183.537984,74.2260497 183.390891,73.6302762 C182.948547,73.0345028 182.604264,72.3880939 182.457171,71.493895 C182.113953,71.0467956 181.818702,70.5501381 181.621512,70.005 C181.376357,69.4587845 181.081105,69.0116851 180.83595,68.4654696 C180.589729,67.9192541 180.246512,67.4721547 180.147384,66.8257459 C179.803101,66.3290884 179.557946,65.7828729 178.821415,65.7333149" id="Fill-10" sketch:type="MSShapeGroup"></path>
                <path d="M213.445833,65.1407735 C213.375484,65.1407735 213.299806,65.154779 213.215601,65.1881768 C212.773256,65.3368508 212.822287,65.931547 212.675194,66.3290884 C212.529167,66.8257459 212.47907,67.3224033 212.282946,67.6714641 C212.282946,69.5083425 211.644477,70.6503315 211.446221,72.2900552 C211.152035,73.8285083 210.808818,75.3184807 210.365407,76.6587017 L210.365407,77.6035359 C210.071221,78.1497514 210.071221,78.8457182 209.973159,79.4404144 L209.480717,81.2298895 C209.432752,82.4699171 209.1375,83.4653867 208.890213,84.5071823 L208.890213,85.2020718 C208.203779,87.0400276 208.007655,89.3746409 207.467248,91.4108287 C207.712403,92.3535083 207.171996,93.2983425 207.467248,94.2905801 C207.467248,94.7387569 206.975872,94.6881215 207.024903,95.135221 C207.221027,95.8807459 206.729651,96.4765193 207.072868,97.1207735 C207.56531,97.3868785 208.384981,97.5851105 209.167345,97.5851105 C209.558527,97.5851105 209.940116,97.5355525 210.267345,97.4202762 C210.562597,97.0712155 210.611628,96.4765193 210.90688,96.0789779 C210.90688,95.8301105 210.758721,95.7309945 210.808818,95.383011 C211.496318,92.8512431 211.790504,89.8712983 212.529167,87.3373757 C212.47907,86.2460221 212.725291,85.4003039 213.069574,84.6558564 L213.069574,83.8122928 C213.706977,82.6196685 213.461822,80.5339227 214.149322,79.3423757 C214.100291,78.8457182 214.199419,78.3479834 214.296415,77.8534807 C214.396609,77.4063812 214.346512,76.758895 214.73876,76.610221 C215.280233,77.5529006 215.62345,78.6970442 216.06686,79.7399171 C216.359981,80.1870166 216.459109,80.8323481 216.755426,81.2783702 C217.048547,81.8245856 217.19564,82.3708011 217.490891,82.8685359 C217.835174,84.0600829 218.474709,84.9036464 218.866957,85.9971547 C219.407364,86.9893923 219.850775,88.0333425 220.193992,89.2248895 C220.390116,89.4748343 220.58624,89.771105 220.734399,90.0706077 C220.881492,90.4175138 220.978488,90.8635359 221.127713,91.1124033 C221.274806,91.3612707 221.323837,91.5099448 221.421899,91.8083702 C221.570058,92.2048343 221.816279,92.5032597 221.864244,92.9008011 C222.208527,93.8930387 222.748934,94.6881215 222.994089,95.8807459 C223.142248,96.1780939 223.386337,96.4765193 223.535562,96.8729834 C223.681589,97.2209669 223.780717,97.6680663 224.271027,97.6680663 C224.911628,97.5700276 225.155717,97.1207735 225.304942,96.4765193 C225.549031,96.0294199 225.795252,95.5338398 225.991376,94.986547 C226.287694,94.5890055 226.335659,93.8930387 226.679942,93.4965746 C226.925097,92.9988398 227.07219,92.4537017 227.465504,92.1046409 C227.465504,91.7577348 227.613663,91.5099448 227.711725,91.1619613 C228.498353,89.8217403 229.037694,88.1335359 229.873353,86.7911602 C230.609884,85.3022652 231.151357,83.6625414 231.937984,82.3223204 C231.98595,81.8741436 232.18314,81.6263536 232.282267,81.2298895 C232.625484,80.7817127 232.871705,80.2850552 233.017733,79.6397238 C233.31405,79.5406077 233.31405,79.1441436 233.36095,78.7961602 C233.509109,78.5968508 233.706298,78.3975414 233.805426,78.1012707 C234.00155,77.6530939 233.951453,76.9582044 234.442829,76.858011 C234.737016,77.9019613 234.787112,79.1926243 235.131395,80.1870166 C235.131395,80.4348066 234.983236,80.5339227 235.033333,80.8323481 C235.525775,81.8741436 235.525775,83.4147514 235.918023,84.5071823 C235.967054,84.8551657 235.768798,84.9036464 235.818895,85.2020718 C236.016085,85.4994199 236.065116,85.8474033 236.212209,86.1458287 C236.162112,86.7911602 236.311337,87.1887017 236.457364,87.6368785 C236.457364,88.8284254 236.802713,89.6224309 236.999903,90.6146685 C237.14593,91.6090608 237.637306,92.3535083 237.538178,93.5956906 C237.785465,94.1925414 237.637306,95.1858564 237.932558,95.7309945 C237.882461,96.6251934 238.177713,97.1714088 238.618992,97.5700276 C239.028295,97.6723757 239.54845,97.7240884 240.079264,97.7240884 C240.824322,97.7240884 241.591764,97.6228177 242.107655,97.4202762 C242.552132,96.7738674 242.157752,96.2276519 242.009593,95.5338398 C241.911531,95.135221 241.911531,94.6881215 241.863566,94.2905801 C241.813469,93.8930387 241.715407,93.4965746 241.617345,93.1496685 C241.568314,92.7014917 241.568314,92.3050276 241.420155,91.9559669 C241.125969,90.3679558 240.586628,89.0772928 240.634593,87.1887017 C240.241279,86.2460221 240.289244,84.9036464 239.847965,84.0600829 C239.896996,83.3651934 239.651841,83.0656906 239.700872,82.4214365 C239.40562,82.023895 239.553779,81.2783702 239.258527,80.9303867 C239.209496,80.2850552 239.012306,79.7399171 238.866279,79.2928177 C238.816182,77.801768 238.324806,76.858011 238.079651,75.5673481 C238.031686,75.2689227 238.177713,75.1698066 238.128682,74.8713812 C237.882461,74.2756077 237.882461,73.6302762 237.785465,72.9849448 C237.637306,72.3880939 237.441182,71.6942818 237.441182,70.9476796 L237.14593,70.2043094 C237.046802,69.1603591 236.849612,68.2166022 236.604457,67.3719613 C236.652422,66.4519061 236.466957,65.4833702 235.817829,65.4833702 C235.801841,65.4833702 235.785853,65.4833702 235.768798,65.4844475 C235.229457,65.5350829 235.180426,66.0317403 234.983236,66.5779558 C234.345833,67.9192541 233.755329,69.2594751 233.017733,70.5016575 C232.920736,71.0467956 232.723547,71.493895 232.428295,71.8429558 C232.477326,72.2394199 232.18314,72.4882873 232.036047,72.8351934 L231.642733,73.9287017 C231.348547,74.6246685 230.955233,75.2193646 230.561919,75.8151381 C230.463857,76.461547 230.119574,76.858011 230.020446,77.4548619 C229.823256,77.801768 229.628198,78.049558 229.380911,78.3479834 C229.380911,78.5968508 229.283915,78.8457182 229.234884,79.0935083 C228.84157,79.5912431 228.645446,80.2365746 228.301163,80.7310773 C228.301163,81.1296961 227.95688,81.2298895 227.907849,81.6263536 C227.907849,82.023895 227.613663,82.1725691 227.465504,82.4699171 C227.416473,82.9180939 227.171318,83.116326 227.171318,83.5645028 C226.58188,84.2087569 226.335659,85.2516298 225.991376,85.9971547 C225.942345,86.0951934 225.844283,86.1458287 225.844283,86.2460221 C225.549031,86.8913536 225.502132,87.4860497 225.155717,88.0333425 C225.00969,88.629116 224.911628,89.2248895 224.370155,89.4241989 C223.878779,89.0277348 223.878779,88.0333425 223.535562,87.4860497 C223.288275,86.7911602 223.044186,86.0951934 222.748934,85.4498619 C222.699903,85.0038398 222.354554,84.9036464 222.354554,84.4576243 C222.208527,84.1096409 222.061434,83.7616575 221.864244,83.5138674 C221.619089,82.8189779 221.323837,82.1725691 220.978488,81.6263536 C221.029651,81.2783702 220.881492,81.1792541 220.881492,80.9303867 C220.635271,80.6330387 220.537209,80.2365746 220.342151,79.8875138 C220.144961,79.0439503 219.752713,78.4492541 219.407364,77.8534807 C218.817926,76.758895 218.424612,75.6169061 218.032364,74.3251657 C217.786143,74.0278177 217.539922,73.7789503 217.392829,73.3814088 C217.147674,72.8351934 216.999516,72.2394199 216.755426,71.7427624 C216.606202,71.3969337 216.410078,71.0963536 216.410078,70.7494475 C215.869671,70.104116 215.62345,69.3090331 215.280233,68.565663 C214.984981,67.7695028 214.493605,67.0250552 214.396609,66.1308564 C214.096027,65.7850276 213.90843,65.1407735 213.445833,65.1407735" id="Fill-11" sketch:type="MSShapeGroup"></path>
                <path d="M268.051453,65.3853315 C267.709302,65.4348895 267.363953,65.5846409 267.021802,65.5846409 C266.332171,65.5846409 265.59564,65.4844475 264.856977,65.4844475 C263.25281,65.4844475 261.736047,65.5296961 260.203295,65.5296961 C259.436919,65.5296961 258.667345,65.5178453 257.880717,65.4844475 C257.437306,65.6837569 256.848934,65.7333149 256.603779,66.1308564 C256.357558,67.0756906 256.553682,68.1174862 256.603779,69.1603591 C256.603779,70.2043094 256.65281,71.295663 256.65281,72.2394199 C256.504651,72.7856354 256.45562,73.4320442 256.407655,74.0773757 C256.407655,75.071768 256.45562,76.1135635 256.65281,76.858011 C256.65281,77.1068785 256.45562,77.2070718 256.504651,77.5529006 C256.65281,77.8534807 256.701841,78.2499448 256.65281,78.6970442 C256.553682,79.2421823 256.848934,79.3919337 256.800969,79.8875138 C256.504651,80.8819061 256.750872,82.023895 256.750872,83.165884 C256.701841,84.6062983 256.65281,85.9971547 256.750872,87.2371823 C256.553682,87.9837845 256.603779,88.8284254 256.750872,89.6224309 C256.800969,89.9704144 256.553682,89.9704144 256.603779,90.3183978 C256.750872,90.5672652 256.848934,90.8635359 256.65281,91.1619613 C256.750872,91.4603867 256.701841,91.9559669 256.800969,92.2543923 C256.800969,92.4030663 256.750872,92.5528177 256.750872,92.7532044 C256.65281,93.2983425 256.701841,94.3401381 256.750872,94.936989 C256.750872,95.5338398 256.553682,96.0789779 256.800969,96.5767127 C257.094089,96.8245028 257.34031,97.1714088 257.733624,97.2716022 C258.32093,97.4202762 258.983915,97.4579834 259.639438,97.4579834 C260.298159,97.4579834 260.950484,97.4202762 261.517539,97.4202762 C262.303101,97.4202762 263.088663,97.5193923 263.875291,97.5193923 C264.612888,97.5193923 265.399516,97.5193923 266.037984,97.3696409 C266.43343,97.4191989 266.840601,97.4353591 267.253101,97.4353591 C267.594186,97.4353591 267.937403,97.4245856 268.28062,97.4138122 C268.623837,97.4030387 268.965988,97.3922652 269.301744,97.3922652 C269.840019,97.3922652 270.362306,97.4202762 270.852616,97.5193923 C271.115891,97.5193923 271.300291,97.3620994 271.579554,97.3620994 C271.614729,97.3620994 271.650969,97.3642541 271.689341,97.3696409 C271.765019,97.3610221 271.847093,97.3588674 271.931298,97.3588674 C271.99845,97.3588674 272.066667,97.3599448 272.134884,97.3620994 C272.204167,97.3631768 272.27345,97.3653315 272.340601,97.3653315 C272.619864,97.3653315 272.878876,97.3373204 273.01531,97.1714088 C273.359593,97.0712155 273.751841,96.9731768 273.850969,96.5767127 C273.998062,95.5338398 274.145155,94.1925414 273.556783,93.5956906 C272.967345,93.4470166 272.353391,93.4093094 271.740504,93.4093094 C271.125484,93.4093094 270.510465,93.4470166 269.919961,93.4470166 C269.47655,93.4470166 269.084302,93.3479006 268.640891,93.3479006 C268.346705,93.3479006 268.051453,93.4965746 267.756202,93.4965746 C267.697578,93.5062707 267.636822,93.5105801 267.575,93.5105801 C267.327713,93.5105801 267.060174,93.4470166 266.824612,93.4470166 C266.548547,93.4470166 266.272481,93.5105801 265.997481,93.5105801 C265.929264,93.5105801 265.861047,93.5062707 265.791764,93.4965746 C265.447481,93.4965746 265.15436,93.3479006 264.810078,93.3479006 C264.514826,93.3479006 264.219574,93.4470166 263.924322,93.4470166 C263.630136,93.4470166 263.284787,93.3479006 262.990601,93.3479006 C262.650581,93.3479006 262.310562,93.4944199 261.947093,93.4944199 C261.838372,93.4944199 261.728585,93.4814917 261.614535,93.4470166 C261.074128,93.1992265 260.729845,92.7532044 260.533721,92.2048343 C260.436725,91.7577348 260.583818,91.1124033 260.533721,90.4670718 C260.779942,90.2677624 260.583818,89.9208564 260.632849,89.771105 C260.632849,89.4748343 260.729845,89.2248895 260.779942,88.8769061 L260.533721,87.3869337 C260.485756,86.6931215 260.485756,85.5500552 260.533721,84.7560497 C260.729845,84.4080663 260.485756,83.6625414 260.779942,83.4147514 C260.632849,82.9180939 260.828973,82.6196685 261.074128,82.3223204 C261.576163,82.1003867 262.278585,82.0605249 262.924516,82.0605249 C263.291182,82.0605249 263.639729,82.073453 263.924322,82.073453 C264.122578,82.073453 264.317636,82.023895 264.465795,82.023895 C265.840795,81.974337 267.069767,81.924779 268.29874,81.924779 C268.790116,81.924779 269.231395,82.023895 269.772868,82.023895 C270.067054,82.023895 270.383624,81.9797238 270.693798,81.9797238 C270.848353,81.9797238 271.000775,81.9904972 271.148934,82.023895 C271.984593,81.7739503 273.112306,81.8741436 273.70281,81.3774862 C274.145155,80.4832873 273.556783,79.4910497 273.70281,78.3975414 C273.161337,77.996768 272.300097,77.9439779 271.373837,77.9439779 C271.041279,77.9439779 270.699128,77.9515193 270.36124,77.9515193 C269.824031,77.7705249 269.239922,77.7360497 268.652616,77.7360497 C268.470349,77.7360497 268.288081,77.7392818 268.10688,77.7425138 C267.926744,77.7457459 267.746609,77.7489779 267.569671,77.7489779 C267.080426,77.7489779 266.609302,77.7241989 266.186143,77.6035359 C266.045446,77.7048066 265.898353,77.7317403 265.732074,77.7317403 C265.635078,77.7317403 265.531686,77.7231215 265.420833,77.7134254 C265.308915,77.7037293 265.188469,77.6951105 265.05843,77.6951105 C264.994477,77.6951105 264.927326,77.6972652 264.856977,77.7026519 C264.249419,77.7479006 263.517151,77.8351657 262.826453,77.8351657 C262.012112,77.8351657 261.254264,77.7134254 260.828973,77.2555525 C260.533721,76.610221 260.632849,75.418674 260.68188,74.8713812 C260.729845,74.2756077 260.583818,73.8285083 260.533721,73.3329282 C260.828973,72.4882873 260.68188,71.5940884 260.68188,70.6007735 C260.927035,70.3529834 260.828973,69.8056906 261.17219,69.7065746 C261.339535,69.5385083 261.616667,69.4803315 261.924709,69.4803315 C262.159205,69.4803315 262.412888,69.5148066 262.647384,69.5568232 C263.555523,69.4081492 264.487112,69.3715193 265.431492,69.3715193 C266.378004,69.3715193 267.338372,69.4092265 268.29874,69.4092265 C269.244186,69.4092265 270.189632,69.2616298 271.112694,69.2616298 C271.38876,69.2616298 271.662694,69.274558 271.934496,69.3090331 C272.574031,69.1603591 273.506686,69.2594751 273.603682,68.565663 C273.70281,67.6714641 273.70281,66.2299724 273.162403,65.7333149 C272.241473,65.5092265 271.236337,65.4812155 270.189632,65.4812155 C269.842151,65.4812155 269.489341,65.4844475 269.133333,65.4844475 C268.790116,65.4844475 268.396802,65.3853315 268.051453,65.3853315" id="Fill-12" sketch:type="MSShapeGroup"></path>
                <path d="M23.4123062,112.344779 C23.0754845,112.344779 22.7205426,112.35232 22.3389535,112.370635 C21.4819767,112.618425 20.9916667,113.484613 20.0131783,113.732403 C18.6669574,113.856298 17.9314922,114.598591 16.5852713,114.721409 C15.7282946,115.712569 14.5046512,116.455939 13.1584302,116.82547 C12.7906977,117.444945 12.4229651,117.940525 11.5670543,118.063343 C10.8315891,119.42511 9.60794574,120.539088 8.50687984,121.528094 C8.26065891,123.013757 6.91443798,123.75605 6.42412791,125.117818 C6.18003876,125.363453 6.30261628,125.857956 6.18003876,126.230718 C6.18003876,126.353536 5.8123062,126.478508 5.8123062,126.601326 C5.44563953,127.838122 5.56821705,128.705387 5.2004845,129.694392 C5.32306202,131.797376 4.95532946,133.281961 5.07790698,135.262127 C5.32306202,137.612901 5.93488372,139.591989 6.54777132,141.69605 C7.89399225,143.55232 9.48430233,145.160801 10.9541667,146.769282 C12.6681202,147.263785 14.0143411,148.253867 15.2390504,149.24395 C16.5852713,149.615635 17.6874031,150.234033 18.6669574,150.976326 C20.870155,151.346934 22.0948643,152.461989 24.298062,152.585884 C26.2561047,153.82268 28.9496124,154.442155 30.9087209,155.677873 C32.8667636,156.914669 34.7032946,158.276436 36.9064922,159.389337 C37.763469,160.628287 39.1096899,161.493398 39.9666667,162.855166 C40.0892442,163.597459 40.4569767,163.968066 40.7010659,164.463646 C40.8236434,166.442735 41.9257752,167.432818 42.0483527,169.289088 C42.0483527,171.515967 40.8236434,172.382155 40.9462209,174.609033 C40.2118217,175.845829 39.7225775,177.455387 38.9871124,178.692182 C37.8860465,179.682265 36.6624031,180.30174 35.6828488,181.414641 C33.3570736,182.156934 31.2753876,183.517624 28.3377907,183.765414 C28.000969,183.792348 27.6598837,183.802044 27.3102713,183.802044 C26.8327519,183.802044 26.3403101,183.783729 25.8276163,183.765414 C25.3149225,183.748177 24.7819767,183.729862 24.2223837,183.729862 C23.8130814,183.729862 23.3899225,183.739558 22.9507752,183.765414 C20.5024225,183.147017 18.5443798,182.033039 15.8508721,181.661354 C15.4831395,180.919061 14.5046512,180.795166 14.2594961,179.930055 C13.8928295,179.55837 13.8928295,179.063867 13.6466085,178.568287 C12.6681202,177.702099 11.8111434,176.836989 11.1982558,175.599116 L10.5875,174.36232 C10.342345,173.742845 10.0982558,172.876657 9.97567829,172.134365 C9.48430233,171.639862 9.85203488,170.279171 8.87248062,170.279171 C8.6752907,170.168204 8.4621124,170.12511 8.24040698,170.12511 C7.84176357,170.12511 7.41327519,170.264088 6.99118217,170.403066 C6.56908915,170.542044 6.15339147,170.679945 5.77926357,170.679945 C5.57141473,170.679945 5.37635659,170.636851 5.2004845,170.525884 C3.85426357,170.773674 2.50697674,171.021464 1.40484496,171.515967 C0.671511628,173.000552 1.16075581,174.856823 1.40484496,176.589199 C1.77364341,177.331492 2.38546512,177.94989 2.50697674,179.063867 C2.8747093,180.05395 3.4875969,180.671271 3.60910853,181.786326 C4.46608527,182.404724 4.95532946,183.270912 5.56821705,184.014282 C6.18003876,184.755497 7.0370155,185.248923 7.28110465,186.363978 C9.72945736,187.106271 10.8315891,189.209254 12.9122093,190.199337 C14.8713178,191.436133 17.4422481,192.055608 19.5239341,193.168508 C19.7477713,193.145884 19.9609496,193.13511 20.163469,193.13511 C21.0662791,193.13511 21.7846899,193.337652 22.5841085,193.539116 C23.3813953,193.563895 24.0976744,193.573591 24.7627907,193.573591 C27.5682171,193.573591 29.454845,193.392597 32.6226744,193.292403 C34.2140504,192.921796 35.4376938,192.178425 37.3957364,192.178425 C38.3752907,191.314392 39.845155,191.065525 40.7010659,190.199337 C41.9257752,189.582017 42.9053295,188.714751 44.0074612,188.096354 C44.4967054,187.479033 44.8633721,186.735663 45.5988372,186.363978 C45.4762597,185.744503 46.0880814,185.621685 46.3321705,185.373895 C46.8224806,184.879392 47.1891473,184.508785 47.4343023,184.014282 C47.8020349,183.394807 47.9235465,182.775331 48.292345,182.279751 C49.0256783,181.786326 49.2697674,180.795166 49.7611434,180.05395 C50.1278101,179.31058 50.1278101,178.44547 50.3729651,177.702099 C50.6170543,176.960884 51.1073643,176.465304 51.3514535,175.599116 C51.474031,174.980718 51.5966085,173.742845 51.474031,173.248343 C50.9847868,170.773674 52.9438953,167.804503 51.719186,164.958149 C52.0869186,162.731271 49.7611434,160.628287 49.3934109,158.276436 C47.6783915,156.297348 46.0880814,154.193287 44.1289729,152.337017 C42.6601744,151.471906 41.3128876,150.234033 39.7225775,149.49174 C39.1096899,148.873343 38.3752907,148.376685 37.3957364,148.129972 C36.5398256,147.636547 35.8043605,147.140967 34.9484496,146.769282 C32.2549419,146.025912 30.0517442,144.914088 27.6023256,144.046823 C25.1550388,143.181713 23.1948643,141.69605 20.5024225,141.077652 C18.9110465,139.715884 16.8293605,138.851851 15.4831395,137.36511 C14.9938953,136.129392 14.5046512,134.891519 14.2594961,133.405856 C14.7487403,130.31279 15.9734496,128.086989 17.197093,125.61232 C19.2787791,123.50826 21.8497093,122.023674 25.2765504,121.156409 C25.7071705,121.191961 26.1260659,121.207044 26.5353682,121.207044 C27.5234496,121.207044 28.4507752,121.119779 29.3162791,121.032514 C31.8882752,121.528094 33.9688953,122.393204 36.0495155,123.259392 C36.2946705,123.631077 36.4161822,123.878867 36.9064922,123.878867 C37.518314,124.743978 38.2537791,125.363453 38.7430233,126.230718 C39.5989341,126.848039 39.7225775,128.332624 41.0687984,128.332624 C41.1807171,128.340166 41.2883721,128.343398 41.3928295,128.343398 C43.1121124,128.343398 43.8177326,127.416878 44.7418605,126.601326 C45.9665698,125.982928 47.5568798,125.735138 47.8020349,124.250552 C47.8020349,121.404199 45.8429264,120.290221 44.7418605,118.435028 C44.0074612,118.435028 43.7623062,117.569917 43.2719961,117.32105 C42.6601744,116.950442 41.9257752,116.82547 41.3128876,116.455939 C41.191376,116.455939 41.191376,116.205994 41.0687984,116.083177 C40.9462209,115.960359 40.7010659,115.960359 40.5795543,115.960359 C39.5989341,115.216989 38.8656008,114.474696 38.008624,113.980193 C37.7432171,114.037293 37.5012597,114.062072 37.2784884,114.062072 C36.064438,114.062072 35.4270349,113.323011 34.7032946,113.114006 C34.5807171,113.093536 34.4624031,113.087072 34.3462209,113.087072 C34.2300388,113.087072 34.1159884,113.093536 34.0051357,113.101077 C33.8942829,113.107541 33.7844961,113.115083 33.677907,113.115083 C33.3570736,113.115083 33.0500969,113.052597 32.744186,112.743398 C32.4350775,112.791878 32.1483527,112.812348 31.8786822,112.812348 C30.7626938,112.812348 29.935562,112.470829 28.9496124,112.370635 C28.2407946,112.435276 27.6268411,112.457901 27.057655,112.457901 C26.4223837,112.457901 25.8436047,112.42989 25.2584302,112.401878 C24.6721899,112.37279 24.0784884,112.344779 23.4123062,112.344779" id="Fill-13" sketch:type="MSShapeGroup"></path>
                <path d="M92.6877907,113.272376 C90.8256783,113.272376 88.9593023,113.691464 88.0746124,114.721409 C87.4627907,116.083177 87.9520349,117.81663 87.9520349,118.805635 C87.8305233,119.919613 87.9520349,121.528094 87.7079457,122.393204 C87.3402132,124.497265 88.1971899,126.601326 88.3197674,128.828204 C88.3197674,129.19989 88.0746124,129.81721 88.0746124,130.31279 C88.1971899,131.921271 88.3197674,132.787459 87.7079457,134.025331 C88.5638566,138.231298 87.4627907,143.30453 88.6864341,146.893177 C87.9520349,148.997238 88.3197674,151.842514 88.3197674,153.698785 C88.3197674,155.677873 88.0746124,157.410249 88.5638566,159.142624 C88.5638566,160.133785 87.8305233,160.256602 87.9520349,161.12279 C88.5638566,162.731271 88.0746124,164.587541 88.0746124,166.442735 C88.1971899,167.18395 88.6864341,167.556713 88.6864341,168.422901 C86.9735465,171.887652 89.4218992,176.713094 87.7079457,180.05395 C88.3197674,181.166851 88.442345,182.775331 88.6864341,184.137099 C88.5638566,186.983453 87.4627907,190.322155 89.2982558,192.178425 C89.866376,192.293702 90.6188953,192.383122 91.3607558,192.383122 C92.2166667,192.383122 93.0587209,192.264613 93.5831395,191.931713 C95.0530039,191.931713 96.5218023,191.808895 97.3787791,190.94163 C97.8680233,184.879392 97.8680233,178.321575 97.6228682,172.25826 C97.9906008,169.783591 98.1131783,167.31 97.6228682,165.082044 C98.2357558,159.389337 97.2562016,154.07047 97.9906008,147.884337 C97.2562016,145.656381 97.8680233,142.933923 97.7454457,140.335359 C97.7454457,137.984586 97.5002907,135.881602 97.9906008,133.901436 C97.7454457,133.159144 97.6228682,132.169061 97.3787791,131.30395 C98.2357558,126.971934 97.6228682,121.404199 97.9906008,117.32105 C97.9906008,117.07326 97.8680233,116.950442 97.7454457,116.701575 C97.6228682,115.588674 97.3787791,114.721409 96.643314,113.980193 C95.6648256,113.540635 94.1768411,113.271298 92.6877907,113.272376" id="Fill-14" sketch:type="MSShapeGroup"></path>
                <path d="M141.353198,112.15732 C140.825581,112.15732 140.308624,112.261823 139.854554,112.618425 C138.997578,113.980193 139.978198,115.960359 139.733043,118.063343 C139.487888,118.930608 139.609399,121.528094 139.854554,121.898702 C140.840504,122.426602 141.935174,122.56558 143.061822,122.56558 C144.31531,122.56558 145.608236,122.393204 146.832946,122.393204 C147.628101,122.331796 148.424322,122.300552 149.219477,122.300552 C150.015698,122.300552 150.810853,122.331796 151.606008,122.393204 C156.25969,122.519254 160.787597,122.393204 165.317636,122.519254 C165.94438,122.254227 166.615891,122.170193 167.292733,122.170193 C168.20407,122.170193 169.127132,122.322099 169.969186,122.393204 C170.678004,122.393204 171.488081,122.222983 172.18624,122.222983 C172.815116,122.222983 173.352326,122.360884 173.641182,122.888785 C172.784205,125.61232 171.806783,128.208729 169.969186,129.942182 C169.235853,131.921271 167.888566,133.281961 167.275678,135.386022 C165.196124,137.36511 164.582171,140.830939 162.50155,142.686133 C162.134884,144.418508 161.032752,145.408591 160.666085,147.140967 C158.829554,149.121133 157.85,151.966409 156.136047,154.193287 C154.667248,156.669033 153.566182,159.389337 151.606008,161.37058 C151.484496,162.608453 150.87374,163.349669 150.137209,164.093039 C149.647965,166.31884 148.179167,167.680608 147.444767,169.535801 C147.200678,170.649779 146.221124,171.144282 145.854457,172.134365 C145.363081,173.495055 144.262016,174.485138 143.527616,175.721934 C142.793217,177.083702 142.425484,178.692182 141.44593,179.930055 C140.467442,181.661354 139.364244,183.394807 137.896512,184.755497 C137.896512,186.363978 136.549225,186.735663 136.549225,188.465884 C135.937403,189.455967 135.203004,190.447127 135.080426,191.931713 C135.570736,193.292403 136.79438,193.664088 138.141667,194.159669 C139.733043,193.664088 140.956686,194.035773 142.546996,193.539116 C143.955039,193.475552 145.253295,193.452928 146.502519,193.452928 C147.907364,193.452928 149.250388,193.480939 150.614729,193.50895 C151.976938,193.538039 153.361531,193.56605 154.850581,193.56605 C155.614826,193.56605 156.407849,193.558508 157.239244,193.539116 L159.197287,193.168508 C160.054264,193.353812 160.973062,193.416298 161.862016,193.416298 C162.748837,193.416298 163.604748,193.35489 164.339147,193.292403 C165.440213,193.292403 166.541279,193.539116 167.643411,193.539116 C169.32219,193.539116 171.159787,193.377514 172.86095,193.377514 C174.137888,193.377514 175.337016,193.469088 176.33469,193.787983 C177.191667,193.539116 178.049709,193.168508 179.029264,193.168508 C179.885174,193.168508 180.741085,193.292403 181.599128,193.292403 C183.313081,193.292403 185.149612,192.921796 186.986143,192.921796 C188.147965,192.921796 189.370543,193.107099 190.487597,193.107099 C191.604651,193.107099 192.616182,192.921796 193.350581,192.178425 C193.964535,191.683923 193.594671,190.199337 193.839826,189.455967 C193.350581,188.465884 194.208624,186.487873 193.474225,185.744503 C193.839826,184.879392 193.350581,184.259917 193.106492,183.147017 C192.890116,183.001575 192.504264,182.953094 192.03314,182.953094 C191.543895,182.953094 190.962984,183.005884 190.384205,183.058674 C189.805426,183.111464 189.229845,183.164254 188.750194,183.164254 C188.600969,183.164254 188.460271,183.158867 188.332364,183.147017 C188.082946,183.071602 187.737597,183.042514 187.335756,183.042514 C186.626938,183.042514 185.743314,183.134088 184.906589,183.225663 C184.069864,183.317238 183.280039,183.407735 182.756686,183.407735 C182.643702,183.407735 182.542442,183.404503 182.456105,183.394807 C182.298353,183.376492 182.15126,183.36895 182.011628,183.36895 C181.171705,183.36895 180.601453,183.641519 179.761531,183.641519 C179.137984,183.350635 177.891957,183.249365 176.548934,183.249365 C174.468314,183.249365 172.155329,183.491768 171.560562,183.641519 C170.582074,183.641519 169.602519,183.270912 168.621899,183.147017 C168.256298,183.147017 167.888566,183.394807 167.520833,183.394807 C167.031589,183.394807 166.541279,183.147017 166.173547,183.147017 C164.21657,183.147017 162.380039,183.270912 160.666085,183.641519 C160.053198,183.394807 154.544671,183.270912 153.197384,183.147017 C152.46405,179.805083 155.401647,178.568287 156.503779,176.341409 C157.239244,175.352403 157.604845,174.11453 158.584399,173.248343 C158.829554,171.763757 164.092926,163.597459 164.582171,162.483481 C165.072481,161.493398 165.562791,160.256602 166.541279,159.637127 C166.663857,158.524227 167.275678,158.028646 167.520833,157.039641 C168.133721,156.297348 170.091764,153.449917 170.214341,152.585884 C170.94874,151.719696 172.417539,148.749448 172.662694,148.501657 C173.886337,147.388757 174.499225,145.655304 175.600291,144.542403 C175.845446,144.171796 175.722868,143.428425 175.968023,143.05674 C176.825,142.43942 177.191667,141.202624 177.926066,140.459254 C178.294864,137.612901 180.37655,136.377182 180.987306,133.654724 C181.477616,133.281961 181.721705,132.539669 182.333527,132.291878 C182.70126,130.065 184.415213,129.19989 184.780814,126.971934 C185.637791,126.230718 186.127035,125.117818 186.986143,124.250552 C187.230233,123.383287 187.596899,122.640994 187.964632,121.774807 C188.697965,120.909696 189.43343,120.167403 190.045252,119.17732 C190.290407,118.063343 191.393605,117.197155 191.759205,116.083177 C191.882849,115.835387 192.003295,115.340884 192.003295,115.340884 C192.24845,114.351878 192.126938,113.856298 191.759205,112.991188 C191.17936,112.46221 190.047384,112.324309 189.018798,112.324309 C187.878295,112.324309 186.863566,112.49453 186.863566,112.49453 C186.863566,112.49453 183.190504,112.49453 181.721705,112.618425 C180.865795,112.618425 179.885174,112.370635 179.029264,112.370635 C176.742926,112.370635 174.621802,112.480525 172.481492,112.480525 C171.412403,112.480525 170.337984,112.453591 169.235853,112.370635 C168.378876,112.370635 168.011143,112.743398 167.275678,112.743398 C165.802616,112.371713 164.298643,112.279061 162.779748,112.279061 C161.26938,112.279061 159.743023,112.370635 158.216667,112.370635 C157.360756,112.370635 156.626357,112.248895 155.891957,112.248895 C154.789826,112.248895 153.811337,112.618425 152.585562,112.618425 C150.627519,112.618425 148.545833,112.248895 146.587791,112.248895 C145.608236,112.248895 144.628682,112.370635 143.527616,112.370635 C142.879554,112.370635 142.105717,112.15732 141.353198,112.15732" id="Fill-15" sketch:type="MSShapeGroup"></path>
                <path d="M259.208818,113.114006 C258.351841,113.236823 257.494864,113.608508 256.637888,113.608508 C254.923934,113.608508 253.087403,113.361796 251.250872,113.361796 C247.252713,113.361796 243.47093,113.471685 239.652907,113.471685 C237.743895,113.471685 235.826357,113.443674 233.867248,113.361796 C232.766182,113.856298 231.297384,113.980193 230.685562,114.970276 C230.07374,117.32105 230.562984,119.919613 230.685562,122.519254 C230.685562,125.117818 230.809205,127.838122 230.809205,130.189972 C230.440407,131.550663 230.317829,133.159144 230.195252,134.767624 C230.195252,137.24337 230.317829,139.840856 230.809205,141.69605 C230.809205,142.315525 230.317829,142.563315 230.440407,143.428425 C230.809205,144.171796 230.929651,145.160801 230.809205,146.274779 C230.562984,147.636547 231.297384,148.007155 231.174806,149.24395 C230.440407,151.719696 231.052229,154.564972 231.052229,157.410249 C230.929651,160.998895 230.809205,164.463646 231.052229,167.556713 C230.562984,169.411906 230.685562,171.515967 231.052229,173.495055 C231.174806,174.36232 230.562984,174.36232 230.685562,175.227431 C231.052229,175.845829 231.297384,176.589199 230.809205,177.331492 C231.052229,178.073785 230.929651,179.31058 231.174806,180.05395 C231.174806,180.425635 231.052229,180.795166 231.052229,181.291823 C230.809205,182.652514 230.929651,185.248923 231.052229,186.735663 C231.052229,188.220249 230.562984,189.582017 231.174806,190.817735 C231.910271,191.436133 232.521027,192.303398 233.501647,192.552265 C234.970446,192.921796 236.622578,193.014448 238.259787,193.014448 C239.896996,193.014448 241.519283,192.921796 242.927326,192.921796 C244.886434,192.921796 246.844477,193.168508 248.802519,193.168508 C250.640116,193.168508 252.598159,193.168508 254.190601,192.797901 C255.170155,192.921796 256.18062,192.96058 257.20281,192.96058 C258.053391,192.96058 258.9125,192.933646 259.768411,192.906713 C260.624322,192.879779 261.478101,192.852845 262.316957,192.852845 C263.657849,192.852845 264.963566,192.921796 266.186143,193.168508 C266.839535,193.168508 267.297868,192.778508 267.994961,192.778508 C268.081298,192.778508 268.171899,192.783895 268.267829,192.797901 C268.45969,192.776354 268.666473,192.76989 268.880717,192.76989 C269.043798,192.76989 269.211143,192.774199 269.379554,192.777431 C269.546899,192.78174 269.71531,192.784972 269.880523,192.784972 C270.579748,192.784972 271.229942,192.718177 271.573159,192.303398 C272.430136,192.055608 273.40969,191.808895 273.653779,190.817735 C274.020446,188.220249 274.389244,184.879392 272.91938,183.394807 C271.449516,183.023122 269.917829,182.93047 268.387209,182.93047 C266.857655,182.93047 265.329167,183.023122 263.861434,183.023122 C262.759302,183.023122 261.779748,182.775331 260.677616,182.775331 C259.942151,182.775331 259.208818,183.147017 258.474419,183.147017 C258.327326,183.171796 258.175969,183.181492 258.021415,183.181492 C257.402132,183.181492 256.73595,183.023122 256.147578,183.023122 C255.462209,183.023122 254.777907,183.181492 254.091473,183.181492 C253.919864,183.181492 253.748256,183.171796 253.576647,183.147017 C252.720736,183.147017 251.985271,182.775331 251.12936,182.775331 C250.394961,182.775331 249.660562,183.023122 248.925097,183.023122 C248.191764,183.023122 247.333721,182.775331 246.600388,182.775331 C245.753004,182.775331 244.90562,183.14163 244.001744,183.14163 C243.731008,183.14163 243.453876,183.108232 243.171415,183.023122 C241.82626,182.404724 240.968217,181.291823 240.478973,179.930055 C240.233818,178.817155 240.60155,177.206519 240.478973,175.599116 C241.09186,175.104613 240.60155,174.238425 240.724128,173.867818 C240.724128,173.124448 240.968217,172.50605 241.09186,171.639862 L240.478973,167.92732 C240.356395,166.196022 240.356395,163.349669 240.478973,161.37058 C240.968217,160.504392 240.356395,158.648122 241.09186,158.028646 C240.724128,156.791851 241.213372,156.049558 241.82626,155.307265 C243.072287,154.75674 244.813953,154.656547 246.422384,154.656547 C247.340116,154.656547 248.214147,154.688867 248.925097,154.688867 C249.415407,154.688867 249.904651,154.564972 250.272384,154.564972 C253.700291,154.442155 256.760465,154.317182 259.82064,154.317182 C261.044283,154.317182 262.145349,154.564972 263.492636,154.564972 C264.228101,154.564972 265.015795,154.455083 265.786434,154.455083 C266.172287,154.455083 266.55281,154.482017 266.920543,154.564972 C269.002229,153.946575 271.818314,154.193287 273.286047,152.956492 C274.389244,150.729613 272.91938,148.253867 273.286047,145.532486 C271.937694,144.533785 269.79845,144.401271 267.496124,144.401271 C266.662597,144.401271 265.807752,144.418508 264.9625,144.418508 C263.625872,143.967099 262.168798,143.881989 260.704264,143.881989 C260.252326,143.881989 259.799322,143.88953 259.34845,143.898149 C258.898643,143.906768 258.450969,143.914309 258.00969,143.914309 C256.789244,143.914309 255.614632,143.851823 254.556202,143.55232 C254.208721,143.80442 253.839922,143.872293 253.427422,143.872293 C253.186531,143.872293 252.930717,143.848591 252.654651,143.825967 C252.379651,143.803343 252.083333,143.779641 251.7625,143.779641 C251.598353,143.779641 251.428876,143.786105 251.250872,143.801188 C249.738372,143.913232 247.917829,144.129779 246.199612,144.129779 C244.164826,144.129779 242.275,143.825967 241.213372,142.686133 C240.478973,141.077652 240.724128,138.107403 240.84564,136.746713 C240.968217,135.262127 240.60155,134.149227 240.478973,132.911354 C241.213372,130.807293 240.84564,128.581492 240.84564,126.105746 C241.457461,125.488425 241.213372,124.126657 242.070349,123.878867 C242.486047,123.458702 243.175678,123.315414 243.940988,123.316492 C244.528295,123.316492 245.159302,123.400525 245.743411,123.50826 C248.007364,123.136575 250.33314,123.043923 252.689826,123.043923 C255.046512,123.043923 257.433043,123.136575 259.82064,123.136575 C262.175194,123.136575 264.529748,122.771354 266.828876,122.771354 C267.517442,122.771354 268.201744,122.803674 268.879651,122.888785 C270.471027,122.519254 272.796802,122.76489 273.041957,121.032514 C273.286047,118.805635 273.286047,115.216989 271.939826,113.980193 C269.646027,113.423204 267.146512,113.353177 264.543605,113.353177 C263.673837,113.353177 262.791279,113.361796 261.902326,113.361796 C261.044283,113.361796 260.065795,113.114006 259.208818,113.114006" id="Fill-16" sketch:type="MSShapeGroup"></path>
            </g>
        </g>
    </g>
</svg>